<?xml version="1.0" encoding="UTF-8" ?>
<!DOCTYPE svg PUBLIC "-//W3C//DTD SVG 1.1//EN" "http://www.w3.org/Graphics/SVG/1.1/DTD/svg11.dtd">
<svg width="55pt" height="49pt" viewBox="0 0 55 49" version="1.1" xmlns="http://www.w3.org/2000/svg">
<g id="#86b469dc">
<path fill="#86b469" opacity="0.86" d=" M 17.57 0.00 L 18.46 0.00 C 18.76 7.32 18.60 14.65 18.58 21.98 C 21.79 23.59 26.49 24.14 27.65 28.12 C 24.59 26.82 21.69 25.21 18.62 23.94 C 18.60 32.29 18.64 40.65 18.61 49.00 L 16.59 49.00 C 13.67 45.99 10.62 43.05 8.05 39.73 C 7.37 34.85 7.65 29.81 7.92 24.89 L 9.14 24.23 C 10.11 29.02 9.42 33.94 9.53 38.78 C 11.91 41.38 14.26 44.01 16.76 46.51 C 16.63 32.14 16.63 17.77 16.76 3.40 C 14.27 5.91 11.89 8.53 9.54 11.16 C 9.29 14.10 10.71 17.90 8.00 20.03 C 7.78 16.79 7.34 13.44 8.00 10.23 C 10.88 6.56 14.23 3.26 17.57 0.00 Z" />
<path fill="#86b469" opacity="0.86" d=" M 30.48 0.00 L 31.36 0.00 C 31.57 9.53 31.47 19.07 31.42 28.60 C 34.18 29.53 37.07 30.10 39.78 31.22 L 40.20 32.38 C 37.15 32.58 34.23 31.59 31.36 30.70 C 31.55 36.80 31.45 42.90 31.46 49.00 L 29.49 49.00 C 26.49 45.80 23.10 42.85 20.69 39.17 C 20.38 34.90 20.51 30.60 20.83 26.33 C 24.11 29.42 21.92 34.69 22.40 38.72 C 24.79 41.36 27.17 43.99 29.65 46.53 C 29.54 32.14 29.53 17.75 29.66 3.36 C 27.16 5.91 24.77 8.56 22.40 11.22 C 21.99 14.61 23.99 19.27 20.81 21.64 C 20.60 17.87 20.18 13.99 20.88 10.27 C 23.77 6.59 27.12 3.26 30.48 0.00 Z" />
<path fill="#86b469" opacity="0.86" d=" M 42.09 0.00 L 44.24 0.00 C 44.39 10.25 44.33 20.50 44.26 30.75 C 46.51 30.21 48.69 29.45 50.93 28.88 C 50.02 28.38 48.19 27.36 47.27 26.85 C 49.84 26.58 52.42 26.69 55.00 26.69 L 55.00 27.96 C 54.09 30.08 53.32 32.53 51.02 33.53 C 51.27 32.68 51.77 30.96 52.02 30.11 C 49.49 31.17 46.89 32.05 44.24 32.75 C 44.36 38.16 44.32 43.58 44.32 49.00 L 42.40 49.00 C 39.43 45.88 36.24 42.93 33.67 39.47 C 33.13 37.34 33.52 35.10 33.60 32.93 C 36.00 34.00 35.25 36.69 35.39 38.79 C 37.74 41.42 40.11 44.02 42.56 46.56 C 42.48 32.15 42.37 17.75 42.61 3.35 C 40.09 5.88 37.70 8.54 35.29 11.18 C 35.37 16.75 35.54 22.33 35.15 27.89 L 33.72 26.62 C 33.23 21.25 33.21 15.72 33.71 10.34 C 36.57 6.61 40.07 3.42 43.29 0.01 L 42.09 0.00 Z" />
<path fill="#86b469" opacity="0.86" d=" M 0.00 22.90 C 3.84 21.50 7.95 20.72 12.04 20.98 C 13.58 20.75 14.63 21.79 15.53 22.87 C 10.31 22.99 5.01 22.91 0.00 24.65 L 0.00 22.90 Z" />
</g>
</svg>
