<?xml version="1.0" encoding="UTF-8" ?>
<!DOCTYPE svg PUBLIC "-//W3C//DTD SVG 1.1//EN" "http://www.w3.org/Graphics/SVG/1.1/DTD/svg11.dtd">
<svg width="32pt" height="45pt" viewBox="0 0 32 45" version="1.1" xmlns="http://www.w3.org/2000/svg">
<g id="#83b067d7">
<path fill="#83b067" opacity="0.84" d=" M 6.35 1.12 C 9.64 -1.33 15.14 0.96 15.42 5.13 C 15.85 12.56 15.45 20.02 15.58 27.46 C 17.27 29.67 19.24 32.02 19.19 34.97 C 19.39 40.32 14.43 45.03 9.09 44.61 C 4.32 44.44 0.68 40.42 0.00 35.87 L 0.00 35.12 C 0.26 32.17 1.83 29.63 3.70 27.42 C 3.74 20.61 3.62 13.80 3.71 6.99 C 3.64 4.76 4.30 2.31 6.35 1.12 M 6.12 5.06 C 5.94 12.99 6.16 20.93 6.03 28.86 C 4.48 30.34 2.66 31.90 2.45 34.19 C 1.70 38.46 5.68 42.66 9.97 42.27 C 14.12 42.29 17.67 37.96 16.77 33.88 C 16.43 31.69 14.65 30.22 13.20 28.71 C 13.30 21.15 13.29 13.58 13.24 6.01 C 13.56 1.99 6.99 1.24 6.12 5.06 Z" />
<path fill="#83b067" opacity="0.84" d=" M 22.00 4.98 C 22.65 3.04 23.94 1.08 26.03 0.54 C 28.40 -0.38 30.57 1.51 32.00 3.19 L 32.00 7.73 C 30.83 8.83 29.69 10.24 27.96 10.36 C 24.87 10.93 22.05 7.91 22.00 4.98 M 24.00 3.98 C 24.00 4.71 24.00 6.16 24.00 6.89 C 25.58 8.59 27.77 9.31 29.79 7.84 C 30.16 6.95 30.54 6.05 30.92 5.16 C 30.03 3.82 29.01 1.78 27.09 2.07 C 25.77 2.06 25.01 3.33 24.00 3.98 Z" />
</g>
</svg>
