<?xml version="1.0" encoding="UTF-8" ?>
<!DOCTYPE svg PUBLIC "-//W3C//DTD SVG 1.1//EN" "http://www.w3.org/Graphics/SVG/1.1/DTD/svg11.dtd">
<svg width="27pt" height="57pt" viewBox="0 0 27 57" version="1.1" xmlns="http://www.w3.org/2000/svg">
<g id="#99cd78fa">
<path fill="#99cd78" opacity="0.98" d=" M 17.77 7.20 C 17.87 4.91 17.45 2.26 19.51 0.67 C 21.84 1.17 24.76 0.10 26.63 2.00 C 26.91 3.72 26.88 5.46 26.95 7.18 C 24.03 9.20 20.69 9.12 17.77 7.20 M 19.70 3.54 C 20.24 4.90 20.86 7.14 22.80 6.48 C 24.46 6.44 24.38 4.63 24.86 3.48 C 23.14 3.48 21.42 3.51 19.70 3.54 Z" />
<path fill="#99cd78" opacity="0.98" d=" M 17.83 16.02 C 18.07 13.96 17.17 11.33 19.02 9.81 C 21.34 9.62 23.76 9.43 26.04 9.99 C 27.46 11.70 26.64 14.09 26.84 16.11 C 23.97 18.03 20.69 17.79 17.83 16.02 M 20.01 12.34 C 20.09 12.88 20.24 13.94 20.32 14.47 C 20.79 14.70 21.74 15.15 22.21 15.37 C 22.96 15.07 23.71 14.76 24.46 14.46 C 24.47 13.90 24.48 12.77 24.48 12.21 C 22.99 12.26 21.50 12.30 20.01 12.34 Z" />
<path fill="#99cd78" opacity="0.98" d=" M 2.22 19.79 C 2.30 19.23 2.45 18.09 2.53 17.52 C 6.34 19.86 10.54 21.69 15.13 20.84 C 16.67 21.36 15.02 23.32 14.02 23.23 C 9.86 24.29 5.56 22.15 2.22 19.79 Z" />
<path fill="#99cd78" opacity="0.98" d=" M 16.91 23.92 C 16.83 21.79 16.39 19.14 18.58 17.91 C 20.71 18.69 22.99 19.05 25.04 20.03 C 26.05 22.87 24.52 25.88 23.66 28.59 C 21.63 29.63 18.67 29.75 16.95 28.02 C 14.52 26.46 16.05 23.41 16.13 21.19 L 16.91 23.92 M 19.03 20.85 C 18.63 22.60 18.22 24.34 17.81 26.09 C 19.07 26.46 20.33 26.82 21.60 27.15 C 22.15 25.43 22.67 23.70 23.18 21.96 C 21.79 21.61 20.41 21.24 19.03 20.85 Z" />
<path fill="#99cd78" opacity="0.98" d=" M 0.01 26.97 C 1.83 24.35 4.57 26.70 6.94 26.92 C 9.83 28.12 12.42 25.42 15.28 25.87 C 15.40 28.25 12.83 28.86 11.02 29.35 C 7.21 30.03 3.31 28.84 0.01 26.97 Z" />
<path fill="#99cd78" opacity="0.98" d=" M 15.05 29.91 C 17.39 30.12 19.74 30.39 22.00 31.01 C 23.05 33.69 21.76 36.56 21.33 39.25 C 18.43 39.86 15.20 40.14 12.89 37.88 C 13.23 35.20 12.95 31.94 15.05 29.91 M 15.89 32.52 C 15.71 34.05 15.52 35.58 15.35 37.11 C 16.65 37.27 17.96 37.39 19.26 37.49 C 19.58 35.98 19.89 34.46 20.20 32.95 C 18.77 32.82 17.33 32.68 15.89 32.52 Z" />
<path fill="#99cd78" opacity="0.98" d=" M 0.00 32.49 C 4.33 32.61 8.64 33.07 12.97 33.01 C 12.49 33.59 11.52 34.76 11.03 35.34 C 7.34 35.97 3.64 35.03 0.00 34.49 L 0.00 32.49 Z" />
<path fill="#99cd78" opacity="0.98" d=" M 1.90 39.21 C 5.45 39.43 8.98 40.06 12.55 40.12 C 10.12 44.69 4.42 41.37 0.60 40.84 C 0.92 40.43 1.57 39.62 1.90 39.21 Z" />
<path fill="#99cd78" opacity="0.98" d=" M 12.23 46.78 C 11.70 44.60 11.76 42.24 13.32 40.48 C 16.07 40.86 21.66 39.44 21.07 44.02 C 22.03 48.84 14.83 49.77 12.23 46.78 M 14.19 43.26 C 14.24 43.79 14.33 44.85 14.37 45.39 C 14.87 45.65 15.87 46.18 16.36 46.45 C 17.10 46.09 17.84 45.74 18.57 45.39 C 18.59 44.85 18.63 43.77 18.64 43.23 C 17.16 43.24 15.67 43.25 14.19 43.26 Z" />
<path fill="#99cd78" opacity="0.98" d=" M 1.16 45.01 C 4.36 45.36 7.69 45.34 10.79 46.21 C 10.99 46.62 11.38 47.44 11.58 47.85 C 8.05 48.93 4.33 47.85 0.90 46.87 C 0.97 46.41 1.10 45.48 1.16 45.01 Z" />
<path fill="#99cd78" opacity="0.98" d=" M 14.07 57.00 C 10.97 55.47 11.88 51.92 12.77 49.28 C 14.90 49.36 17.03 49.42 19.16 49.45 C 20.06 52.05 20.81 55.36 17.92 57.00 L 14.07 57.00 M 13.64 52.30 C 14.44 53.04 14.53 55.16 15.98 54.86 C 17.56 55.27 17.34 52.96 18.03 52.12 C 16.56 52.14 15.10 52.20 13.64 52.30 Z" />
</g>
</svg>
