<?xml version="1.0" encoding="UTF-8" ?>
<!DOCTYPE svg PUBLIC "-//W3C//DTD SVG 1.1//EN" "http://www.w3.org/Graphics/SVG/1.1/DTD/svg11.dtd">
<svg width="141pt" height="114pt" viewBox="0 0 141 114" version="1.1" xmlns="http://www.w3.org/2000/svg">
<g id="#191919df">
<path fill="#191919" opacity="0.87" d=" M 37.64 0.00 L 41.30 0.00 C 42.92 1.53 44.34 3.25 45.72 4.99 C 44.09 6.92 42.85 9.92 40.00 10.13 C 37.85 10.05 36.04 8.54 35.12 6.67 C 34.18 4.08 36.38 2.00 37.64 0.00 M 36.72 3.00 C 37.06 4.78 36.63 7.82 39.13 8.10 C 42.06 9.04 44.53 4.74 41.97 2.84 C 40.66 1.03 38.39 2.74 36.72 3.00 Z" />
<path fill="#191919" opacity="0.87" d=" M 68.24 0.00 L 71.30 0.00 C 72.92 1.53 74.34 3.25 75.72 4.99 C 74.09 6.92 72.85 9.91 70.00 10.13 C 67.04 10.00 64.21 7.06 65.00 4.01 C 65.56 2.33 67.02 1.19 68.24 0.00 M 66.71 3.02 C 67.06 4.79 66.64 7.80 69.11 8.09 C 72.03 9.06 74.53 4.77 71.99 2.87 C 70.70 1.01 68.37 2.74 66.71 3.02 Z" />
<path fill="#191919" opacity="0.87" d=" M 99.25 0.00 L 102.31 0.00 C 103.91 1.53 105.33 3.24 106.71 4.98 C 105.17 7.04 103.82 9.82 100.98 10.25 C 98.42 9.91 95.76 7.81 95.91 5.03 C 95.83 2.81 97.85 1.41 99.25 0.00 M 97.71 3.03 C 98.07 4.79 97.64 7.79 100.09 8.09 C 102.99 9.07 105.52 4.84 103.02 2.91 C 101.74 1.00 99.39 2.72 97.71 3.03 Z" />
<path fill="#191919" opacity="0.87" d=" M 129.24 0.00 L 132.31 0.00 C 133.91 1.53 135.33 3.24 136.71 4.98 C 135.17 7.03 133.83 9.80 131.01 10.25 C 128.42 9.93 125.74 7.80 125.91 4.99 C 125.86 2.80 127.85 1.40 129.24 0.00 M 127.98 2.93 C 127.97 4.36 127.96 5.80 127.95 7.23 C 129.57 7.65 131.84 8.96 133.11 7.19 C 134.42 6.10 134.31 3.96 133.02 2.91 C 131.80 1.08 129.60 2.62 127.98 2.93 Z" />
<path fill="#191919" opacity="0.87" d=" M 7.57 72.41 C 3.28 70.41 4.69 63.94 9.01 63.02 C 12.31 62.33 14.03 65.70 15.46 68.01 C 14.17 70.95 11.08 74.77 7.57 72.41 M 6.71 66.02 C 7.06 67.80 6.65 70.83 9.13 71.10 C 12.03 72.04 14.51 67.78 12.01 65.87 C 10.66 64.05 8.40 65.70 6.71 66.02 Z" />
<path fill="#191919" opacity="0.87" d=" M 37.57 72.41 C 33.26 70.41 34.71 63.89 39.06 63.01 C 42.35 62.37 44.03 65.71 45.47 68.02 C 44.17 70.95 41.07 74.77 37.57 72.41 M 36.72 66.02 C 37.06 67.79 36.64 70.81 39.11 71.09 C 42.04 72.06 44.54 67.74 41.97 65.85 C 40.64 64.05 38.38 65.72 36.72 66.02 Z" />
<path fill="#191919" opacity="0.87" d=" M 64.62 69.79 C 64.87 66.99 65.92 63.74 69.01 63.02 C 72.31 62.33 74.02 65.69 75.46 68.00 C 74.21 70.21 72.87 72.88 70.03 73.21 C 67.75 73.05 66.25 71.14 64.62 69.79 M 66.72 66.00 C 67.07 67.77 66.63 70.78 69.09 71.09 C 72.02 72.08 74.55 67.76 71.98 65.86 C 70.71 64.00 68.38 65.75 66.72 66.00 Z" />
<path fill="#191919" opacity="0.87" d=" M 98.55 72.40 C 94.27 70.39 95.72 63.90 100.05 63.01 C 103.33 62.36 105.02 65.70 106.47 67.99 C 105.19 70.95 102.05 74.79 98.55 72.40 M 97.98 65.92 C 97.97 67.36 97.96 68.80 97.96 70.24 C 99.56 70.64 101.80 71.95 103.09 70.22 C 104.44 69.11 104.32 66.91 102.98 65.85 C 101.73 64.11 99.58 65.62 97.98 65.92 Z" />
<path fill="#191919" opacity="0.87" d=" M 128.56 72.40 C 124.27 70.39 125.71 63.92 130.03 63.01 C 133.33 62.35 135.02 65.70 136.46 68.00 C 135.18 70.95 132.06 74.78 128.56 72.40 M 127.97 65.92 C 127.97 67.36 127.96 68.80 127.95 70.23 C 129.59 70.65 131.84 71.97 133.13 70.17 C 134.42 69.09 134.31 66.97 133.04 65.92 C 131.80 64.10 129.60 65.60 127.97 65.92 Z" />
</g>
<g id="#9cd17aff">
<path fill="#9cd17a" opacity="1.00" d=" M 7.20 0.97 C 10.71 -1.79 16.01 2.58 14.48 6.54 C 13.52 10.40 7.46 11.03 5.68 7.52 C 4.27 5.36 5.17 2.38 7.20 0.97 Z" />
<path fill="#9cd17a" opacity="1.00" d=" M 0.68 14.20 C 2.57 9.76 8.20 10.89 12.05 10.75 C 15.15 10.45 18.86 11.98 19.37 15.39 C 19.69 20.49 19.64 25.64 19.41 30.74 C 19.50 32.84 16.74 32.69 15.38 33.51 C 15.42 38.37 15.59 43.25 15.40 48.11 C 15.42 49.56 14.68 51.09 13.00 50.79 C 10.14 50.71 5.72 52.16 4.18 48.93 C 3.88 44.27 4.29 39.60 4.13 34.93 C 4.23 32.66 1.41 32.74 0.00 31.80 L 0.00 31.20 C 0.13 30.93 0.38 30.40 0.51 30.14 C 0.33 24.86 -0.50 19.39 0.68 14.20 Z" />
</g>
<g id="#1d1d1df6">
<path fill="#1d1d1d" opacity="0.96" d=" M 30.04 16.91 C 30.01 14.14 32.02 11.17 34.93 10.94 C 37.95 10.80 40.98 10.91 44.01 10.89 C 47.20 10.71 49.79 13.92 49.58 16.99 C 49.60 21.68 49.82 26.40 49.44 31.09 C 49.06 32.85 46.79 32.81 45.45 33.50 C 45.31 38.95 46.01 44.49 45.12 49.89 C 42.49 52.02 38.63 50.61 35.49 51.10 C 32.63 45.76 34.75 39.32 34.10 33.52 C 32.69 32.87 31.30 32.20 29.92 31.49 C 30.10 26.63 29.87 21.76 30.04 16.91 M 31.91 14.62 C 32.13 19.92 31.62 25.24 32.15 30.52 C 32.62 30.82 33.56 31.43 34.03 31.73 C 34.28 27.41 33.82 23.06 34.26 18.76 C 34.65 18.45 35.42 17.83 35.81 17.52 C 36.17 28.02 35.87 38.54 35.99 49.05 C 36.74 49.07 38.24 49.11 38.99 49.13 C 38.95 43.70 38.96 38.27 38.97 32.84 C 39.43 32.84 40.34 32.85 40.80 32.85 C 40.77 38.28 40.79 43.71 40.77 49.14 C 41.53 49.10 43.06 49.03 43.83 48.99 C 43.93 38.60 43.51 28.18 44.03 17.80 C 44.37 17.98 45.06 18.35 45.40 18.54 C 45.74 22.91 45.35 27.31 45.56 31.69 C 49.55 30.77 47.29 25.94 47.88 23.03 C 47.47 19.69 49.29 14.34 45.15 12.83 C 40.77 12.51 35.49 11.36 31.91 14.62 Z" />
<path fill="#1d1d1d" opacity="0.96" d=" M 60.04 16.90 C 60.02 14.11 62.05 11.14 65.00 10.93 C 68.00 10.74 71.01 10.89 74.02 10.89 C 77.22 10.72 79.80 13.94 79.58 17.01 C 79.60 21.68 79.82 26.38 79.44 31.04 C 79.16 32.87 76.76 32.77 75.46 33.51 C 75.28 38.96 76.06 44.51 75.09 49.89 C 72.50 52.06 68.61 50.59 65.50 51.10 C 62.62 45.76 64.75 39.33 64.09 33.54 C 62.71 32.83 61.28 32.22 59.92 31.47 C 60.10 26.62 59.87 21.76 60.04 16.90 M 61.92 14.60 C 62.12 19.90 61.62 25.24 62.15 30.52 C 62.62 30.82 63.55 31.43 64.02 31.73 C 64.18 27.25 64.12 22.77 64.03 18.29 C 64.52 18.26 65.50 18.20 65.99 18.17 C 65.95 28.46 65.98 38.75 65.99 49.05 C 66.74 49.07 68.24 49.11 68.99 49.14 C 68.95 43.70 68.96 38.27 68.97 32.84 C 69.43 32.84 70.34 32.85 70.80 32.85 C 70.77 38.28 70.79 43.71 70.77 49.14 C 71.53 49.10 73.06 49.03 73.83 48.99 C 73.89 38.44 73.57 27.89 74.00 17.35 C 74.35 17.78 75.04 18.65 75.38 19.09 C 75.75 23.28 75.36 27.49 75.56 31.70 C 76.10 31.41 77.18 30.83 77.72 30.54 C 78.04 26.01 77.87 21.44 77.82 16.90 C 78.05 14.62 76.16 12.50 73.85 12.61 C 69.83 12.58 65.14 11.55 61.92 14.60 Z" />
<path fill="#1d1d1d" opacity="0.96" d=" M 91.13 15.89 C 91.50 12.59 94.74 10.38 97.97 10.80 C 102.30 10.84 108.84 9.57 110.37 15.07 C 110.85 20.03 110.62 25.05 110.55 30.03 C 110.96 32.54 108.13 32.80 106.46 33.51 C 106.32 38.95 106.98 44.46 106.15 49.85 C 103.53 52.05 99.64 50.61 96.49 51.10 C 93.64 45.75 95.74 39.33 95.10 33.53 C 93.69 32.87 92.29 32.20 90.92 31.48 C 91.15 26.29 90.76 21.08 91.13 15.89 M 92.91 14.62 C 93.13 19.92 92.62 25.24 93.15 30.52 C 93.62 30.82 94.56 31.43 95.03 31.73 C 95.28 27.42 94.81 23.08 95.26 18.79 C 95.64 18.45 96.40 17.79 96.78 17.46 C 97.22 27.98 96.85 38.52 96.99 49.05 C 97.74 49.07 99.24 49.11 99.99 49.13 C 99.95 43.70 99.96 38.27 99.97 32.84 C 100.42 32.85 101.34 32.85 101.80 32.86 C 101.77 38.28 101.79 43.71 101.77 49.14 C 102.53 49.10 104.06 49.03 104.83 49.00 C 104.89 38.45 104.57 27.89 105.00 17.35 C 105.35 17.79 106.04 18.67 106.39 19.11 C 106.75 23.29 106.36 27.50 106.56 31.69 C 107.10 31.41 108.18 30.83 108.72 30.54 C 109.00 25.73 108.94 20.88 108.76 16.07 C 108.67 14.08 106.84 12.57 104.90 12.62 C 100.87 12.61 96.13 11.50 92.91 14.62 Z" />
<path fill="#1d1d1d" opacity="0.96" d=" M 121.04 16.89 C 121.02 14.12 123.03 11.18 125.93 10.94 C 129.53 10.71 133.19 10.55 136.76 11.11 C 139.53 12.13 140.90 15.14 140.61 17.96 C 140.48 22.60 141.04 27.31 140.23 31.90 C 139.08 32.66 137.73 33.02 136.46 33.50 C 136.29 38.95 137.04 44.49 136.10 49.87 C 133.52 52.07 129.61 50.59 126.48 51.10 C 123.66 45.74 125.73 39.33 125.10 33.52 C 123.69 32.87 122.29 32.20 120.92 31.49 C 121.10 26.62 120.87 21.75 121.04 16.89 M 123.16 15.05 C 122.77 20.18 122.76 25.39 123.15 30.52 C 123.62 30.83 124.56 31.43 125.03 31.73 C 125.28 27.42 124.81 23.07 125.26 18.77 C 125.64 18.45 126.41 17.80 126.79 17.48 C 127.20 27.99 126.86 38.53 126.99 49.05 C 127.74 49.07 129.24 49.11 129.99 49.13 C 130.01 43.49 129.80 37.83 130.14 32.19 C 130.50 32.53 131.23 33.20 131.59 33.54 C 132.11 38.71 131.63 43.94 131.77 49.14 C 132.53 49.10 134.06 49.03 134.83 48.99 C 134.89 38.44 134.57 27.89 135.00 17.35 C 135.35 17.80 136.04 18.71 136.39 19.16 C 136.75 23.33 136.36 27.52 136.56 31.70 C 137.10 31.41 138.18 30.83 138.72 30.54 C 138.95 25.47 139.06 20.34 138.63 15.27 C 137.63 12.01 133.69 12.57 131.05 12.47 C 128.38 12.65 124.33 11.82 123.16 15.05 Z" />
<path fill="#1d1d1d" opacity="0.96" d=" M 0.00 77.93 C 2.59 72.51 9.18 73.72 14.07 73.87 C 17.28 73.84 19.75 76.90 19.55 80.01 C 19.64 84.91 19.99 89.89 19.21 94.75 C 18.06 95.59 16.67 96.00 15.49 96.78 C 15.49 101.88 15.50 106.97 15.52 112.06 C 15.16 112.55 14.42 113.52 14.06 114.00 L 5.28 114.00 C 2.97 108.47 4.51 102.28 4.13 96.47 C 2.75 95.90 1.37 95.32 0.00 94.72 L 0.00 77.93 M 1.92 77.60 C 2.12 82.90 1.62 88.24 2.15 93.52 C 2.62 93.82 3.56 94.43 4.03 94.73 C 4.28 90.42 3.82 86.08 4.26 81.79 C 4.64 81.46 5.40 80.81 5.79 80.48 C 6.20 90.99 5.86 101.52 5.99 112.05 C 6.74 112.07 8.24 112.11 8.99 112.13 C 8.95 106.70 8.96 101.27 8.97 95.84 C 9.42 95.84 10.34 95.85 10.80 95.85 C 10.78 101.28 10.79 106.71 10.77 112.14 C 11.53 112.10 13.06 112.03 13.83 111.99 C 13.89 101.45 13.57 90.89 14.00 80.35 C 14.34 80.79 15.04 81.66 15.38 82.09 C 15.75 86.28 15.36 90.50 15.56 94.70 C 16.10 94.41 17.18 93.83 17.72 93.54 C 18.00 88.73 17.93 83.89 17.76 79.08 C 17.68 77.07 15.82 75.56 13.86 75.61 C 9.85 75.60 5.14 74.52 1.92 77.60 Z" />
</g>
<g id="#1c1c1cff">
<path fill="#1c1c1c" opacity="1.00" d=" M 30.52 77.59 C 32.16 72.79 38.09 73.83 42.06 73.75 C 45.37 73.36 49.28 75.25 49.44 78.96 C 49.69 84.22 49.94 89.56 49.22 94.78 C 48.03 95.48 46.80 96.09 45.53 96.63 C 45.46 101.78 45.47 106.92 45.51 112.07 C 45.14 112.55 44.40 113.52 44.03 114.00 L 35.31 114.00 C 32.97 108.37 34.56 102.07 34.16 96.15 C 33.46 96.04 32.05 95.82 31.34 95.71 C 31.01 95.28 30.36 94.43 30.03 94.00 C 30.26 88.55 29.39 82.97 30.52 77.59 M 32.15 78.01 C 31.72 83.16 31.74 88.40 32.12 93.55 C 32.61 93.85 33.58 94.45 34.07 94.75 C 34.31 90.43 33.84 86.09 34.29 81.79 C 34.66 81.46 35.39 80.81 35.76 80.48 C 36.17 91.00 35.83 101.55 35.96 112.08 C 36.71 112.10 38.23 112.14 38.99 112.16 C 38.96 106.72 38.96 101.28 38.97 95.84 C 39.42 95.84 40.32 95.85 40.77 95.85 C 40.75 101.29 40.76 106.74 40.74 112.18 C 41.52 112.14 43.06 112.06 43.83 112.03 C 43.78 103.35 43.84 94.68 43.77 86.01 C 43.88 84.08 43.33 81.68 45.35 80.53 C 45.64 85.26 45.36 90.00 45.56 94.74 C 46.10 94.44 47.19 93.85 47.73 93.56 C 47.95 88.48 48.07 83.35 47.64 78.28 C 46.67 74.97 42.68 75.55 40.01 75.46 C 37.34 75.63 33.36 74.82 32.15 78.01 Z" />
<path fill="#1c1c1c" opacity="1.00" d=" M 60.53 77.56 C 62.17 72.80 68.08 73.83 72.02 73.75 C 75.35 73.36 79.28 75.23 79.44 78.95 C 79.68 84.19 79.95 89.53 79.21 94.74 C 78.02 95.51 76.73 96.11 75.46 96.73 C 75.49 101.84 75.48 106.95 75.51 112.06 C 75.14 112.55 74.40 113.52 74.04 114.00 L 65.31 114.00 C 62.99 108.51 64.55 102.34 64.15 96.56 C 62.74 95.88 61.34 95.19 59.95 94.47 C 60.30 88.85 59.38 83.10 60.53 77.56 M 62.15 78.02 C 61.73 83.17 61.74 88.40 62.12 93.55 C 62.61 93.85 63.58 94.45 64.07 94.75 C 64.31 90.43 63.85 86.09 64.28 81.80 C 64.65 81.47 65.40 80.83 65.77 80.50 C 66.15 91.02 65.83 101.55 65.96 112.08 C 66.71 112.10 68.23 112.14 68.99 112.16 C 68.96 106.72 68.96 101.28 68.97 95.84 C 69.42 95.85 70.32 95.85 70.77 95.85 C 70.75 101.29 70.76 106.74 70.74 112.18 C 71.51 112.14 73.06 112.06 73.83 112.02 C 73.90 101.47 73.58 90.91 74.00 80.36 C 74.34 80.79 75.03 81.65 75.37 82.08 C 75.73 86.29 75.34 90.52 75.55 94.73 C 76.09 94.44 77.18 93.86 77.73 93.57 C 77.95 88.49 78.07 83.35 77.65 78.29 C 76.68 74.98 72.69 75.54 70.04 75.46 C 67.35 75.63 63.36 74.81 62.15 78.02 Z" />
<path fill="#1c1c1c" opacity="1.00" d=" M 91.52 77.57 C 93.15 72.81 99.04 73.83 102.98 73.75 C 106.33 73.35 110.30 75.23 110.44 78.99 C 110.68 84.23 110.97 89.57 110.18 94.78 C 109.00 95.53 107.71 96.11 106.46 96.73 C 106.49 101.84 106.48 106.95 106.51 112.06 C 106.14 112.54 105.40 113.51 105.04 114.00 L 96.31 114.00 C 93.97 108.37 95.56 102.07 95.16 96.15 C 94.46 96.04 93.06 95.83 92.35 95.72 C 92.02 95.29 91.36 94.43 91.03 93.99 C 91.26 88.53 90.38 82.95 91.52 77.57 M 93.15 78.05 C 92.73 83.19 92.74 88.41 93.12 93.55 C 93.61 93.85 94.58 94.45 95.07 94.75 C 95.31 90.44 94.85 86.10 95.28 81.81 C 95.64 81.48 96.37 80.80 96.74 80.46 C 97.19 90.99 96.81 101.54 96.96 112.08 C 97.71 112.10 99.23 112.14 99.99 112.16 C 99.96 106.73 99.96 101.29 99.97 95.85 C 100.42 95.85 101.32 95.85 101.77 95.85 C 101.75 101.30 101.76 106.74 101.74 112.18 C 102.51 112.14 104.06 112.06 104.83 112.03 C 104.90 101.47 104.57 90.91 105.00 80.37 C 105.34 80.80 106.03 81.66 106.37 82.10 C 106.73 86.30 106.33 90.52 106.55 94.73 C 107.09 94.44 108.18 93.86 108.72 93.57 C 108.95 88.50 109.06 83.37 108.65 78.30 C 107.69 74.98 103.68 75.55 101.01 75.46 C 98.33 75.63 94.31 74.81 93.15 78.05 Z" />
<path fill="#1c1c1c" opacity="1.00" d=" M 121.52 77.59 C 123.14 72.81 129.04 73.83 132.99 73.75 C 136.32 73.36 140.28 75.21 140.44 78.95 C 140.68 84.19 140.94 89.52 140.22 94.73 C 139.03 95.52 137.72 96.09 136.46 96.74 C 136.49 101.85 136.48 106.96 136.51 112.07 C 136.14 112.55 135.40 113.52 135.04 114.00 L 126.31 114.00 C 123.99 108.50 125.55 102.34 125.15 96.55 C 123.74 95.88 122.34 95.20 120.95 94.48 C 121.29 88.87 120.39 83.13 121.52 77.59 M 123.15 78.03 C 122.73 83.17 122.74 88.40 123.12 93.55 C 123.61 93.85 124.58 94.45 125.07 94.74 C 125.31 90.44 124.85 86.10 125.28 81.81 C 125.65 81.48 126.38 80.80 126.75 80.47 C 127.18 90.99 126.82 101.54 126.96 112.08 C 127.71 112.10 129.23 112.14 129.99 112.16 C 129.96 106.72 129.96 101.28 129.97 95.84 C 130.42 95.84 131.32 95.85 131.77 95.85 C 131.75 101.29 131.76 106.74 131.74 112.18 C 132.52 112.14 134.06 112.06 134.83 112.02 C 134.78 103.33 134.85 94.64 134.77 85.95 C 134.87 84.04 134.35 81.67 136.35 80.53 C 136.64 85.26 136.37 90.00 136.56 94.73 C 137.10 94.44 138.18 93.86 138.72 93.57 C 138.95 88.48 139.07 83.34 138.64 78.27 C 137.65 74.97 133.67 75.55 131.00 75.46 C 128.33 75.63 124.34 74.82 123.15 78.03 Z" />
</g>
</svg>
