<?xml version="1.0" encoding="UTF-8" standalone="no"?>
<svg
   xmlns:dc="http://purl.org/dc/elements/1.1/"
   xmlns:cc="http://creativecommons.org/ns#"
   xmlns:rdf="http://www.w3.org/1999/02/22-rdf-syntax-ns#"
   xmlns:svg="http://www.w3.org/2000/svg"
   xmlns="http://www.w3.org/2000/svg"
   xmlns:sodipodi="http://sodipodi.sourceforge.net/DTD/sodipodi-0.dtd"
   xmlns:inkscape="http://www.inkscape.org/namespaces/inkscape"
   viewBox="0 0 375 225"
   height="300"
   width="500"
   version="1.1"
   id="svg294"
   sodipodi:docname="all_img.svg"
   inkscape:version="0.92.2 (5c3e80d, 2017-08-06)">
  <metadata
     id="metadata300">
    <rdf:RDF>
      <cc:Work
         rdf:about="">
        <dc:format>image/svg+xml</dc:format>
        <dc:type
           rdf:resource="http://purl.org/dc/dcmitype/StillImage" />
        <dc:title></dc:title>
      </cc:Work>
    </rdf:RDF>
  </metadata>
  <defs
     id="defs298" />
  <sodipodi:namedview
     pagecolor="#ffffff"
     bordercolor="#666666"
     borderopacity="1"
     objecttolerance="10"
     gridtolerance="10"
     guidetolerance="10"
     inkscape:pageopacity="0"
     inkscape:pageshadow="2"
     inkscape:window-width="1366"
     inkscape:window-height="722"
     id="namedview296"
     showgrid="false"
     inkscape:zoom="1.3152186"
     inkscape:cx="198.0792"
     inkscape:cy="157.48722"
     inkscape:window-x="-5"
     inkscape:window-y="-5"
     inkscape:window-maximized="1"
     inkscape:current-layer="svg294"
     fit-margin-bottom="100" />
  <g
     id="g160"
     style="fill:#96c864">
    <path
       d="m 26.808,2.01 h 1.13 c 3.096,1.732 6.68,2.054 10.056,2.924 2.908,0.863 5.98,0.45 8.94,0.278 v 26.265 c -0.564,4.957 -2.304,9.87 -5.7,13.612 -3.51,4.05 -8.618,6.09 -13.183,8.67 H 27.216 C 21.648,50.653 15.45,47.97 11.94,42.35 9.212,42.23 6.403,42.68 3.736,42.005 1.756,41.337 1.958,38.93 1.951,37.265 c 0.167,-4.2 -0.255,-8.43 0.22,-12.615 1.114,-2.535 4.21,-1.515 6.38,-1.77 0.007,-5.798 0.007,-11.603 0,-17.4 6.17,-0.21 12.767,-0.33 18.258,-3.473 m -0.52,2.632 c -5.024,1.86 -10.38,2.7 -15.735,2.73 0.038,5.265 -0.015,10.537 0.038,15.81 l 1.206,-0.473 c 0.203,-4.576 0.015,-9.173 0.038,-13.756 4.218,-0.547 8.51,-0.9 12.57,-2.257 1.553,-0.405 3.188,-1.313 4.784,-0.533 4.633,1.62 9.507,2.303 14.38,2.73 0.188,1.283 -0.173,2.288 -1.1,3.03 -1.145,-1.912 -3.517,-1.455 -5.378,-1.83 -3.307,-0.33 -6.41,-1.65 -9.657,-2.22 -4.444,1.328 -8.956,2.505 -13.61,2.715 -0.016,3.922 -0.07,7.852 -0.023,11.774 -0.03,1.17 0.632,2.198 0.98,3.278 0.948,-0.653 1.972,-1.253 2.68,-2.19 0.362,-2.115 0.06,-4.268 0.234,-6.398 0.36,-2.655 3.924,-4.357 6.048,-2.482 2.418,1.8 1.304,5.137 1.514,7.687 -0.346,1.274 1.115,1.71 2.087,1.507 2.026,0.045 4.06,-0.128 6.086,0.097 2.146,0.653 3.645,2.88 3.494,5.108 -0.037,3.15 0.15,6.307 -0.12,9.442 -0.542,2.895 -3.714,4.268 -6.425,3.938 -4.287,-0.308 -8.822,0.787 -12.882,-0.998 2.78,3 6.63,4.538 10.048,6.638 4.467,-2.31 9.46,-4.538 11.924,-9.21 3.495,-6.48 1.635,-14.07 2.132,-21.075 0.444,0.082 1.34,0.24 1.785,0.315 -0.18,7.042 1.34,14.655 -2.064,21.172 -2.81,5.385 -8.43,8.753 -13.912,10.785 -4.767,-2.393 -9.942,-4.853 -12.69,-9.683 -0.295,0.217 -0.883,0.637 -1.177,0.847 2.968,5.303 8.83,7.71 13.928,10.463 2.81,-0.915 5.31,-2.7 7.918,-4.095 5.95,-3.398 9.59,-10.208 9.438,-16.988 -0.015,-7.717 -0.03,-15.435 0,-23.152 C 39.948,7.32 35.043,6.675 30.411,5.085 29.076,4.71 27.645,3.9 26.289,4.635 m -6.56,11.572 c -0.21,2.88 0.595,6.105 -1.115,8.663 -0.85,1.477 -2.606,1.95 -4.053,2.647 -0.022,3.353 -0.015,6.713 -0.015,10.073 1.974,0.165 3.616,1.14 4.85,2.662 4.634,0.082 9.274,0.037 13.914,0.022 0.534,-0.51 1.068,-1.013 1.596,-1.53 -0.008,-3.878 0.24,-7.778 -0.09,-11.648 -2.607,-3.382 -8.362,0.683 -10.976,-2.865 -0.685,-2.363 -0.195,-4.943 -0.226,-7.388 -1.1,-1.133 -2.47,-1.463 -3.886,-0.638 m -15.82,8.73 c 0.047,5.108 0,10.223 0.04,15.33 2.914,-0.12 5.935,0.405 8.782,-0.277 0.098,-4.995 -0.136,-9.99 0.113,-14.978 -2.968,-0.24 -5.95,-0.203 -8.934,-0.076 z"
       id="path156"
       inkscape:connector-curvature="0"
       style="opacity:0.98000004" />
    <path
       d="m 41.58,14.7 c 0.52,0.044 1.574,0.127 2.1,0.172 -0.082,0.435 -0.24,1.305 -0.323,1.74 -1.25,-0.06 -2.312,-0.345 -1.778,-1.913 z M 5.363,36.892 c 2.117,0.015 4.233,0.022 6.35,0.135 -0.12,0.42 -0.37,1.252 -0.49,1.665 -1.958,0.21 -3.932,0.105 -5.89,0.112 z"
       id="path158"
       inkscape:connector-curvature="0"
       style="opacity:0.98000004" />
  </g>
  <g
     id="g166"
     style="fill:#96c964">
    <path
       d="m 66.31,4.17 c 8.362,-0.206 16.74,-0.23 25.102,0.008 0.098,7.18 0.045,14.36 0.03,21.53 1.358,0.04 2.715,0.085 4.065,0.13 -0.015,-4.874 -0.067,-9.75 -0.022,-14.618 -0.15,-1.45 0.705,-2.64 1.357,-3.838 3.983,0.008 7.995,-0.366 11.948,0.16 1.822,1.603 2.94,3.854 4.342,5.822 0.563,0.81 1.118,1.625 1.673,2.442 1.042,1.54 2.1,3.075 3.075,4.662 v 15.206 c -1.343,0.58 -2.715,1.1 -4.103,1.572 a 32.152,32.152 0 0 1 -2.28,4.105 c 1.673,-0.022 3.435,-0.022 4.853,1.038 -6.443,0.64 -12.975,0.672 -19.418,-0.023 1.568,-1.12 3.48,-1.03 5.295,-1.03 A 42.313,42.313 0 0 1 99.7,36.996 c -1.095,-0.215 -2.19,-0.444 -3.278,-0.68 -4.905,1.038 -9.967,0.38 -14.94,0.503 a 63.45,63.45 0 0 1 -2.61,4.632 c 3.503,-0.107 7.013,-0.183 10.515,-0.1 1.118,-0.037 2.1,0.512 2.978,1.16 -5.985,0.496 -12,-0.007 -17.993,0.382 -3.75,-0.35 -7.71,0.45 -11.265,-1.09 2.228,-0.474 4.508,-0.474 6.773,-0.46 l -1.74,-1.89 c -0.255,-0.84 -0.503,-1.687 -0.75,-2.534 -2.063,-0.183 -4.35,0.335 -6.233,-0.702 -2.182,-2 -1.305,-5.448 -1.192,-8.088 0.757,-2.884 4.087,-2.342 6.33,-2.48 -0.03,-7.164 -0.068,-14.32 0.015,-21.478 m 1.77,1.71 c 0.075,6.622 0.045,13.252 0.015,19.875 7.14,-0.015 14.28,0 21.42,-0.008 C 89.5,19.126 89.477,12.495 89.53,5.873 87.092,5.88 84.655,5.88 82.21,5.88 c 0.075,2.395 0.067,4.798 -0.098,7.194 A 121.1,121.1 0 0 1 78.857,11.06 c -1.065,0.648 -2.122,1.32 -3.225,1.892 -0.435,-2.327 -0.285,-4.723 -0.255,-7.08 -2.43,0.007 -4.867,0.007 -7.297,0.007 m 8.58,0 c 0.022,1.632 0.007,3.265 -0.015,4.905 L 78.82,9.35 c 0.735,0.497 1.462,0.985 2.205,1.473 A 77.683,77.683 0 0 1 80.912,5.879 H 76.66 M 97.675,9.25 c -0.405,1.655 -0.233,3.38 -0.263,5.066 0.075,6.867 -0.097,13.734 0.105,20.593 0.555,0 1.658,0.016 2.213,0.016 0.945,-3.456 3.967,-6.645 7.755,-6.134 3.39,0.145 5.625,3.22 6.457,6.302 2.145,0.122 2.775,-1.595 2.52,-3.48 -1.207,-0.19 -2.452,-0.32 -3.57,-0.87 -0.202,-1.15 -0.21,-2.334 -0.105,-3.493 0.78,-1.19 2.408,-0.87 3.6,-1.205 -0.022,-1.54 0.075,-3.09 -0.12,-4.624 -1.65,-3.058 -3.855,-5.767 -5.7,-8.704 -0.892,-1.175 -1.507,-2.663 -2.745,-3.518 -3.375,-0.16 -6.78,-0.183 -10.147,0.054 M 61.622,27.93 c -0.007,2.037 -0.135,4.082 0.075,6.11 1.29,1.687 3.788,0.604 5.603,0.894 0.705,-3.327 3.555,-6.37 7.08,-6.15 3.51,-0.076 5.985,3.03 7.005,6.142 4.605,-0.114 9.24,0.283 13.822,-0.206 0.503,-2.25 0.248,-4.57 0.233,-6.85 -3.743,-0.436 -7.523,-0.17 -11.28,-0.238 -7.508,0.16 -15.053,-0.366 -22.538,0.298 m 52.515,-0.634 c 0,1.015 -0.007,2.03 -0.007,3.045 0.562,-0.015 1.68,-0.037 2.235,-0.045 0.007,-0.977 0.007,-1.953 0.015,-2.922 -0.563,-0.023 -1.68,-0.06 -2.243,-0.077 m -44.407,6.08 c -2.078,3.275 0.907,8.173 4.717,7.746 1.883,0.107 3.18,-1.473 4.515,-2.564 0.368,-2.144 0.705,-4.814 -1.125,-6.4 -2.265,-2.367 -6.66,-1.78 -8.107,1.22 m 33.84,-1.435 c -2.085,1.51 -1.83,4.288 -1.508,6.554 1.335,1.122 2.648,2.724 4.553,2.625 2.895,0.297 5.7,-2.533 5.332,-5.486 0.083,-4.12 -5.467,-6.577 -8.377,-3.693 z"
       id="path162"
       inkscape:connector-curvature="0" />
    <path
       d="m 99.317,10.907 c 2.543,-0.282 5.303,-0.725 7.763,0 a 93.414,93.414 0 0 1 6.66,10.354 c -1.005,0.673 -2.273,0.436 -3.398,0.52 -3.412,-0.076 -6.832,0.153 -10.237,-0.13 -0.18,-0.168 -0.533,-0.496 -0.713,-0.656 -0.232,-3.357 -0.045,-6.722 -0.075,-10.087 m 1.365,1.107 c 0.068,2.762 0.06,5.524 0,8.286 3.713,0.053 7.433,-0.023 11.153,0.084 -1.838,-2.77 -3.623,-5.578 -5.43,-8.37 z m -44.737,3.508 c 0.93,-1.548 2.752,-1.114 4.237,-1.19 1.448,0.06 3.158,-0.29 4.058,1.175 -2.745,0.405 -5.543,0.39 -8.295,0.015 z m 18.607,2.77 c 2.4,-0.236 4.83,-0.015 7.058,0.977 l -0.045,-1.404 a 33.3,33.3 0 0 1 3.09,0.892 l -2.04,0.886 c 0.307,0.29 0.922,0.862 1.23,1.144 -0.398,0.22 -1.2,0.656 -1.598,0.877 0.578,0.214 1.74,0.65 2.318,0.87 -1.725,1.1 -4.163,0.305 -3.293,-2.312 -0.277,0.016 -0.832,0.03 -1.11,0.046 0.113,0.762 0.33,2.28 0.435,3.044 -0.337,-0.382 -1.02,-1.153 -1.357,-1.542 -0.353,0.405 -1.05,1.213 -1.403,1.61 -0.6,-1.45 0.428,-4.334 -1.972,-4.273 0.24,0.41 0.72,1.25 0.96,1.663 -0.72,0.9 -1.53,1.71 -2.325,2.54 -0.06,-1.67 -0.165,-3.357 0.052,-5.02 m 4.47,1.373 c 0.48,0.45 0.48,0.45 0,0 z m 5.858,-1.432 c 0.615,-0.046 1.83,-0.122 2.437,-0.168 -0.33,1.343 -0.487,2.816 -1.492,3.846 l 2.055,0.427 c -0.93,0.526 -1.973,0.67 -3.008,0.755 a 95.458,95.458 0 0 1 0.008,-4.86 z m -33.75,1.373 c 2.025,-0.8 1.897,2.67 0,1.442 z m 3.577,0.107 c 2.798,0.054 5.595,-0.16 8.385,0.107 0.285,0.25 0.855,0.762 1.14,1.02 -3.157,0.43 -6.352,0.238 -9.532,0.246 0.007,-0.344 0.007,-1.03 0.007,-1.374 z m 44.633,3.624 c 1.32,0.077 2.752,0.1 3.727,1.153 -1.372,0.052 -3.337,0.9 -3.727,-1.154 z M 72.715,33.98 c 1.2,-1.45 2.955,-0.175 3.967,0.817 -0.015,0.55 -0.052,1.64 -0.075,2.19 -0.72,0.572 -1.447,1.144 -2.182,1.708 -0.465,-0.206 -1.403,-0.625 -1.875,-0.83 -0.72,-1.245 -1.283,-2.9 0.165,-3.885 m -0.248,1.824 c 0.533,0.38 1.605,1.144 2.138,1.526 0.307,-0.916 0.57,-1.83 0.802,-2.762 -0.99,0.38 -1.98,0.786 -2.94,1.236 z m 32.048,0.999 c -0.833,-1.9 1.41,-4.166 3.285,-3.296 a 5.408,5.408 0 0 1 1.725,2.25 c -0.24,1.573 -1.673,2.328 -2.813,3.183 a 26.627,26.627 0 0 1 -2.197,-2.137 m 1.095,-2.205 c 0.27,0.946 0.382,2.053 1.2,2.716 l 1.29,-1.16 c 0.495,-1.335 -1.935,-0.953 -2.49,-1.556 z m -10.883,6.89 c 0.698,-0.97 2.813,-0.107 1.973,1.1 -0.698,0.975 -2.873,0.106 -1.973,-1.1 z"
       id="path164"
       inkscape:connector-curvature="0" />
  </g>
  <g
     id="g172"
     style="fill:#98cb66">
    <path
       d="m 131.65,2.098 h 33.09 c 1.275,0.945 2.655,2.108 2.738,3.833 0.277,4.35 0.105,8.716 0.007,13.073 l -1.597,-1.627 c -1.208,-4.14 0.93,-9.015 -1.185,-12.945 -2.243,-0.652 -4.62,-0.397 -6.923,-0.614 0.473,1.762 0.563,3.765 1.845,5.19 1.568,1.185 3.623,1.327 5.408,2.055 -3.893,2.228 -8.37,-2.07 -8.153,-6.082 a 44.32,44.32 0 0 0 -1.05,-1.012 c -5.662,0.015 -11.325,0.112 -16.987,-0.06 0.06,2.49 -0.653,4.942 -2.745,6.457 9.24,2.228 18.352,4.973 27.562,7.358 2.175,0.436 4.088,1.778 5.033,3.818 v 1.613 c -1.29,4.478 -2.52,8.97 -3.705,13.47 -0.525,1.756 -0.945,3.87 -2.67,4.86 -1.815,1.2 -3.975,0.316 -5.88,-0.134 -8.603,-2.475 -17.288,-4.665 -25.868,-7.178 -2.422,-0.622 -4.185,-3.315 -3.262,-5.76 1.387,-5.13 2.602,-10.335 4.365,-15.352 0.487,-1.8 2.31,-2.55 3.975,-2.843 0.09,-0.18 0.262,-0.525 0.345,-0.705 a 47.505,47.505 0 0 0 1.74,-4.47 l 0.765,0.165 c -0.51,-0.45 -1.02,-0.892 -1.538,-1.342 -2.025,0.226 -6.045,-0.427 -5.812,2.723 0.172,3.968 -0.353,7.943 -1.95,11.61 -0.308,-3.885 -0.248,-7.792 -0.143,-11.685 -0.15,-1.905 1.433,-3.165 2.595,-4.41 m 1.665,12.075 c -1.672,5.288 -2.82,10.725 -4.455,16.02 0.72,0.72 1.245,1.793 2.333,1.995 7.275,2.265 14.767,3.825 21.99,6.24 1.012,-2.505 2.137,-5.355 4.972,-6.247 1.703,-0.194 4.17,-0.704 4.958,1.343 -1.785,-0.015 -3.645,-0.465 -5.37,0.203 -1.538,0.9 -2.453,2.49 -2.91,4.17 l -0.683,-0.255 c 0.053,0.316 0.15,0.953 0.195,1.268 2.498,-0.037 5.033,1.845 7.425,0.623 1.718,-3.51 2.153,-7.507 3.383,-11.204 0.525,-1.988 1.2,-3.953 1.41,-6.008 0.075,-1.845 -2.078,-2.182 -3.405,-2.617 -8.678,-2.34 -17.333,-4.777 -26.01,-7.117 -1.485,-0.592 -3.518,-0.232 -3.833,1.59 z"
       id="path168"
       inkscape:connector-curvature="0" />
    <path
       d="m 148.323,6.088 c 0.765,0.443 1.485,0.953 2.16,1.523 0.42,0.203 1.267,0.608 1.687,0.81 l -0.697,1.808 c -1.26,-0.33 -3.9,-1.507 -3.99,0.66 0.45,0.593 1.335,1.785 1.777,2.378 -1.305,-0.81 -3.66,-0.503 -4.305,-2.145 0.083,-2.19 2.28,-3.344 3.368,-5.032 z M 137.035,18.02 c 2.07,-0.712 2.145,-3.487 4.163,-4.297 -0.33,2.97 -2.603,5.618 -5.603,6.075 -1.365,0.48 -2.565,-0.495 -3.412,-1.44 1.62,-0.007 3.352,0.518 4.852,-0.337 z m 12.698,0.608 c 0.285,0.008 0.862,0.03 1.155,0.038 0.757,1.462 2.902,2.872 1.275,4.56 -0.99,-0.6 -1.973,-1.193 -2.97,-1.778 -0.368,0.39 -1.103,1.178 -1.47,1.575 1.267,1.995 4.05,3.398 3.877,6.038 -0.097,2.483 -3.052,2.91 -4.447,4.493 a 116.78,116.78 0 0 1 -1.613,-0.135 l -0.12,-1.755 c -0.735,-0.487 -1.47,-0.982 -2.19,-1.485 0.36,-0.442 1.073,-1.312 1.433,-1.755 1.297,0.833 2.782,2.205 4.395,1.238 0.742,-3.06 -4.283,-4.117 -3.465,-7.274 0.442,-1.995 2.617,-2.738 4.14,-3.758 z m 14.94,9.315 c -4.343,0.39 -8.745,-5.73 -5.1,-9.03 0.082,1.56 0.082,3.12 0.097,4.688 1.193,2.026 3.833,2.348 5.003,4.343 z m -33.293,-4.38 c 1.583,0.863 3.458,1.56 4.343,3.263 1.335,1.867 0.885,4.275 0.45,6.36 -1.988,-0.683 -0.368,-2.783 -0.923,-4.223 -0.285,-2.182 -2.272,-3.262 -4.08,-4.042 l 0.21,-1.357 z m 5.768,14.587 c 0.457,0.256 1.372,0.758 1.83,1.013 -0.93,2.933 -2.355,6.038 -5.348,7.35 -2.685,1.568 -5.857,1.148 -8.64,0.113 0.225,0.907 0.443,1.815 0.66,2.722 h -1.725 a 49.886,49.886 0 0 1 -1.732,-4.822 v -2.31 c 2.745,0.09 5.52,0.262 8.16,1.095 a 65.06,65.06 0 0 1 -3.735,1.763 c 2.227,-0.09 4.672,0.218 6.615,-1.11 2.055,-1.327 2.827,-3.75 3.915,-5.812 z"
       id="path170"
       inkscape:connector-curvature="0" />
  </g>
  <g
     id="g180"
     style="fill:#86b469">
    <path
       d="m 195.367,1.966 h 0.89 c 0.3,7.32 0.14,14.65 0.12,21.98 3.21,1.61 7.91,2.16 9.07,6.14 -3.06,-1.3 -5.96,-2.91 -9.03,-4.18 -0.02,8.35 0.02,16.71 -0.01,25.06 h -2.02 c -2.92,-3.01 -5.97,-5.95 -8.54,-9.27 -0.68,-4.88 -0.4,-9.92 -0.13,-14.84 l 1.22,-0.66 c 0.97,4.79 0.28,9.71 0.39,14.55 2.38,2.6 4.73,5.23 7.23,7.73 -0.13,-14.37 -0.13,-28.74 0,-43.11 -2.49,2.51 -4.87,5.13 -7.22,7.76 -0.25,2.94 1.17,6.74 -1.54,8.87 -0.22,-3.24 -0.66,-6.59 0,-9.8 2.88,-3.67 6.23,-6.97 9.57,-10.23 z"
       id="path174"
       inkscape:connector-curvature="0"
       style="opacity:0.86000001" />
    <path
       d="m 208.277,1.966 h 0.88 c 0.21,9.53 0.11,19.07 0.06,28.6 2.76,0.93 5.65,1.5 8.36,2.62 l 0.42,1.16 c -3.05,0.2 -5.97,-0.79 -8.84,-1.68 0.19,6.1 0.09,12.2 0.1,18.3 h -1.97 c -3,-3.2 -6.39,-6.15 -8.8,-9.83 -0.31,-4.27 -0.18,-8.57 0.14,-12.84 3.28,3.09 1.09,8.36 1.57,12.39 2.39,2.64 4.77,5.27 7.25,7.81 -0.11,-14.39 -0.12,-28.78 0.01,-43.17 -2.5,2.55 -4.89,5.2 -7.26,7.86 -0.41,3.39 1.59,8.05 -1.59,10.42 -0.21,-3.77 -0.63,-7.65 0.07,-11.37 2.89,-3.68 6.24,-7.01 9.6,-10.27 z"
       id="path176"
       inkscape:connector-curvature="0"
       style="opacity:0.86000001" />
    <path
       d="m 219.887,1.966 h 2.15 c 0.15,10.25 0.09,20.5 0.02,30.75 2.25,-0.54 4.43,-1.3 6.67,-1.87 -0.91,-0.5 -2.74,-1.52 -3.66,-2.03 2.57,-0.27 5.15,-0.16 7.73,-0.16 v 1.27 c -0.91,2.12 -1.68,4.57 -3.98,5.57 0.25,-0.85 0.75,-2.57 1,-3.42 a 59.363,59.363 0 0 1 -7.78,2.64 c 0.12,5.41 0.08,10.83 0.08,16.25 h -1.92 c -2.97,-3.12 -6.16,-6.07 -8.73,-9.53 -0.54,-2.13 -0.15,-4.37 -0.07,-6.54 2.4,1.07 1.65,3.76 1.79,5.86 2.35,2.63 4.72,5.23 7.17,7.77 -0.08,-14.41 -0.19,-28.81 0.05,-43.21 -2.52,2.53 -4.91,5.19 -7.32,7.83 0.08,5.57 0.25,11.15 -0.14,16.71 l -1.43,-1.27 c -0.49,-5.37 -0.51,-10.9 -0.01,-16.28 2.86,-3.73 6.36,-6.92 9.58,-10.33 z m -42.09,22.9 c 3.84,-1.4 7.95,-2.18 12.04,-1.92 1.54,-0.23 2.59,0.81 3.49,1.89 -5.22,0.12 -10.52,0.04 -15.53,1.78 z"
       id="path178"
       inkscape:connector-curvature="0"
       style="opacity:0.86000001" />
  </g>
  <g
     id="g188"
     style="fill:#8bbb6d">
    <path
       d="m 262.347,5.08 c 12.5,-3.87 26.78,5.08 29.03,17.89 3.01,12.81 -7.3,26.42 -20.29,27.54 -12.34,1.68 -24.67,-8.33 -25.68,-20.71 -1.38,-10.96 6.4,-21.86 16.94,-24.72 m 0.18,2.44 c -7.46,2.07 -13.34,8.71 -14.54,16.37 -1.65,8.75 3.02,18.29 11.09,22.13 8.05,4.16 18.66,2.36 24.79,-4.34 6.83,-7.09 7.41,-19.08 1.37,-26.84 -5.09,-6.84 -14.58,-9.86 -22.71,-7.32 z"
       id="path182"
       inkscape:connector-curvature="0"
       style="opacity:0.88999999" />
    <path
       d="m 259.807,12.63 c 6.19,-4.21 15.19,-3.14 20.32,2.28 3.35,3.23 4.68,7.86 5.12,12.37 -2.31,0.11 -4.63,0.1 -6.93,-0.08 0.68,-1.88 2.52,-2.24 4.23,-2.64 -0.67,-2.38 -1.47,-4.77 -2.88,-6.83 -1.51,0.64 -3,1.71 -4.68,0.85 0.88,-1.1 1.76,-2.19 2.65,-3.28 -2.4,-1.25 -4.92,-2.23 -7.48,-3.07 -0.3,1.5 -0.28,3.33 -1.89,4.11 -0.73,-1.25 -1.18,-2.61 -1.38,-4.06 -2.53,0.77 -4.98,1.78 -7.31,3.02 0.85,1.4 3.54,3.1 0.88,4.2 l -2.96,-2.08 a 37.533,37.533 0 0 0 -2.98,7.11 c 1.72,0.43 3.59,0.77 4.34,2.64 -2.32,0.21 -4.65,0.22 -6.98,0.14 0.36,-5.74 2.89,-11.58 7.93,-14.68 z"
       id="path184"
       inkscape:connector-curvature="0"
       style="opacity:0.88999999" />
    <path
       d="m 270.547,22.16 c 1.38,-0.62 2.76,-1.22 4.16,-1.78 -0.52,1.41 -1.21,2.74 -1.98,4.02 1.17,4.47 -4.68,8.79 -8.04,4.97 -3.2,-2.96 -0.46,-7.43 3.17,-8.26 0.89,0.35 1.79,0.7 2.69,1.05 m -4.8,5.58 c 0.6,0.19 1.82,0.56 2.43,0.74 0.55,-0.26 1.64,-0.78 2.18,-1.04 -0.26,-1.37 -0.29,-3.8 -2.31,-3.57 -2.23,-0.44 -2.41,2.35 -2.3,3.87 z m -0.69,5.58 c 2.83,-0.13 7.19,-0.93 8.15,2.69 0.7,3.41 -3.17,4.43 -5.77,4.47 -0.33,1.77 0.83,5.58 -2.22,4.15 -0.36,-3.76 -0.14,-7.54 -0.16,-11.31 m 1.72,2.26 c 0.13,3.15 3.75,2.78 4.87,0.5 -1.62,-0.23 -3.24,-0.41 -4.87,-0.5 z"
       id="path186"
       inkscape:connector-curvature="0"
       style="opacity:0.88999999" />
  </g>
  <g
     id="g192"
     style="fill:#83b067">
    <path
       d="m 200.477,65.11 c 3.29,-2.45 8.79,-0.16 9.07,4.01 0.43,7.43 0.03,14.89 0.16,22.33 1.69,2.21 3.66,4.56 3.61,7.51 0.2,5.35 -4.76,10.06 -10.1,9.64 -4.77,-0.17 -8.41,-4.19 -9.09,-8.74 v -0.75 c 0.26,-2.95 1.83,-5.49 3.7,-7.7 0.04,-6.81 -0.08,-13.62 0.01,-20.43 -0.07,-2.23 0.59,-4.68 2.64,-5.87 m -0.23,3.94 c -0.18,7.93 0.04,15.87 -0.09,23.8 -1.55,1.48 -3.37,3.04 -3.58,5.33 -0.75,4.27 3.23,8.47 7.52,8.08 4.15,0.02 7.7,-4.31 6.8,-8.39 -0.34,-2.19 -2.12,-3.66 -3.57,-5.17 0.1,-7.56 0.09,-15.13 0.04,-22.7 0.32,-4.02 -6.25,-4.77 -7.12,-0.95 z m 15.88,-0.08 c 0.65,-1.94 1.94,-3.9 4.03,-4.44 2.37,-0.92 4.54,0.97 5.97,2.65 v 4.54 c -1.17,1.1 -2.31,2.51 -4.04,2.63 -3.09,0.57 -5.91,-2.45 -5.96,-5.38 m 2,-1 v 2.91 c 1.58,1.7 3.77,2.42 5.79,0.95 0.37,-0.89 0.75,-1.79 1.13,-2.68 -0.89,-1.34 -1.91,-3.38 -3.83,-3.09 -1.32,-0.01 -2.08,1.26 -3.09,1.91 z"
       id="path190"
       inkscape:connector-curvature="0"
       style="opacity:0.83999999" />
  </g>
  <g
     id="g196"
     style="fill:#99cd78">
    <path
       d="m 268.04,68.11 c 0.1,-2.29 -0.32,-4.94 1.74,-6.53 2.33,0.5 5.25,-0.57 7.12,1.33 0.28,1.72 0.25,3.46 0.32,5.18 -2.92,2.02 -6.26,1.94 -9.18,0.02 m 1.93,-3.66 c 0.54,1.36 1.16,3.6 3.1,2.94 1.66,-0.04 1.58,-1.85 2.06,-3 -1.72,0 -3.44,0.03 -5.16,0.06 z m -1.87,12.48 c 0.24,-2.06 -0.66,-4.69 1.19,-6.21 2.32,-0.19 4.74,-0.38 7.02,0.18 1.42,1.71 0.6,4.1 0.8,6.12 -2.87,1.92 -6.15,1.68 -9.01,-0.09 m 2.18,-3.68 c 0.08,0.54 0.23,1.6 0.31,2.13 0.47,0.23 1.42,0.68 1.89,0.9 0.75,-0.3 1.5,-0.61 2.25,-0.91 0.01,-0.56 0.02,-1.69 0.02,-2.25 -1.49,0.05 -2.98,0.09 -4.47,0.13 z m -17.79,7.45 c 0.08,-0.56 0.23,-1.7 0.31,-2.27 3.81,2.34 8.01,4.17 12.6,3.32 1.54,0.52 -0.11,2.48 -1.11,2.39 -4.16,1.06 -8.46,-1.08 -11.8,-3.44 z m 14.69,4.13 c -0.08,-2.13 -0.52,-4.78 1.67,-6.01 2.13,0.78 4.41,1.14 6.46,2.12 1.01,2.84 -0.52,5.85 -1.38,8.56 -2.03,1.04 -4.99,1.16 -6.71,-0.57 -2.43,-1.56 -0.9,-4.61 -0.82,-6.83 l 0.78,2.73 m 2.12,-3.07 c -0.4,1.75 -0.81,3.49 -1.22,5.24 1.26,0.37 2.52,0.73 3.79,1.06 0.55,-1.72 1.07,-3.45 1.58,-5.19 -1.39,-0.35 -2.77,-0.72 -4.15,-1.11 z m -19.02,6.12 c 1.82,-2.62 4.56,-0.27 6.93,-0.05 2.89,1.2 5.48,-1.5 8.34,-1.05 0.12,2.38 -2.45,2.99 -4.26,3.48 -3.81,0.68 -7.71,-0.51 -11.01,-2.38 z m 15.04,2.94 c 2.34,0.21 4.69,0.48 6.95,1.1 1.05,2.68 -0.24,5.55 -0.67,8.24 -2.9,0.61 -6.13,0.89 -8.44,-1.37 0.34,-2.68 0.06,-5.94 2.16,-7.97 m 0.84,2.61 c -0.18,1.53 -0.37,3.06 -0.54,4.59 1.3,0.16 2.61,0.28 3.91,0.38 0.32,-1.51 0.63,-3.03 0.94,-4.54 a 216.7,216.7 0 0 1 -4.31,-0.43 z M 250.27,93.4 c 4.33,0.12 8.64,0.58 12.97,0.52 -0.48,0.58 -1.45,1.75 -1.94,2.33 -3.69,0.63 -7.39,-0.31 -11.03,-0.85 z m 1.9,6.72 c 3.55,0.22 7.08,0.85 10.65,0.91 -2.43,4.57 -8.13,1.25 -11.95,0.72 0.32,-0.41 0.97,-1.22 1.3,-1.63 z m 10.33,7.57 c -0.53,-2.18 -0.47,-4.54 1.09,-6.3 2.75,0.38 8.34,-1.04 7.75,3.54 0.96,4.82 -6.24,5.75 -8.84,2.76 m 1.96,-3.52 c 0.05,0.53 0.14,1.59 0.18,2.13 0.5,0.26 1.5,0.79 1.99,1.06 0.74,-0.36 1.48,-0.71 2.21,-1.06 0.02,-0.54 0.06,-1.62 0.07,-2.16 z m -13.03,1.75 c 3.2,0.35 6.53,0.33 9.63,1.2 0.2,0.41 0.59,1.23 0.79,1.64 -3.53,1.08 -7.25,0 -10.68,-0.98 0.07,-0.46 0.2,-1.39 0.26,-1.86 z m 12.91,11.99 c -3.1,-1.53 -2.19,-5.08 -1.3,-7.72 2.13,0.08 4.26,0.14 6.39,0.17 0.9,2.6 1.65,5.91 -1.24,7.55 h -3.85 m -0.43,-4.7 c 0.8,0.74 0.89,2.86 2.34,2.56 1.58,0.41 1.36,-1.9 2.05,-2.74 -1.47,0.02 -2.93,0.08 -4.39,0.18 z"
       id="path194"
       inkscape:connector-curvature="0"
       style="opacity:0.98000004" />
  </g>
  <g
     id="g202"
     style="fill:#313131">
    <path
       d="m 66.4,56.27 h 1.552 c 0.015,1.18 0.03,2.356 0.037,3.534 2.302,0.007 4.612,0.007 6.922,0.007 0.03,-1.176 0.06,-2.36 0.097,-3.54 h 1.47 c 0.164,1.18 0.277,2.364 0.397,3.55 h 6.75 a 559.7,559.7 0 0 1 0.075,-3.55 h 1.477 c 0.172,1.18 0.284,2.364 0.404,3.55 2.273,-0.01 4.545,-0.01 6.818,-0.024 -0.008,-1.177 -0.023,-2.347 -0.03,-3.525 h 1.432 c 0.173,1.186 0.308,2.37 0.435,3.564 2.242,-0.015 4.477,-0.023 6.712,-0.015 0.03,-1.186 0.067,-2.364 0.105,-3.55 h 1.425 c 0.135,1.18 0.247,2.356 0.345,3.54 2.272,0 4.545,0 6.817,-0.006 0,-1.178 0,-2.355 0.008,-3.533 h 1.485 c 0.157,1.17 0.262,2.35 0.367,3.526 l 3.72,0.045 c 0.33,0.466 0.998,1.404 1.335,1.87 v 41.774 c -1.073,0.825 -2.31,1.47 -3.713,1.365 -15.518,0.03 -31.035,-0.054 -46.553,0.036 -1.89,0.09 -3.877,-0.105 -5.235,-1.582 v -41.85 c 1.312,-1.538 3.36,-1.65 5.22,-1.898 0.037,-1.095 0.074,-2.19 0.12,-3.285 m -3.54,5.386 c -0.016,2.265 -0.008,4.523 -0.038,6.78 17.362,0.015 34.717,0.023 52.072,-0.007 -0.03,-2.26 -0.03,-4.524 -0.052,-6.78 -1.103,-0.046 -2.205,-0.084 -3.308,-0.13 -0.15,1.36 -0.3,2.71 -0.51,4.05 -1.455,-0.86 -1.44,-2.52 -1.567,-4.02 -2.243,0.016 -4.493,0.01 -6.735,0.01 -0.023,1.154 -0.045,2.316 -0.083,3.47 A 70.537,70.537 0 0 1 100.9,64.696 c 0.045,-1.043 0.082,-2.085 0.127,-3.135 -2.325,0 -4.65,0 -6.975,0.02 0.022,1.036 0.037,2.08 0.06,3.12 -0.413,0.114 -1.23,0.346 -1.636,0.46 -0.06,-1.2 -0.112,-2.4 -0.165,-3.6 a 500.65,500.65 0 0 1 -6.713,-0.016 c -0.3,1.17 0.24,4.515 -1.883,3.135 A 61.61,61.61 0 0 1 83.55,61.56 h -6.72 c -0.256,1.26 0.284,2.88 -0.916,3.78 -1.207,-0.916 -0.952,-2.476 -1.162,-3.796 -2.22,0.022 -4.44,0.022 -6.668,0.015 -0.112,1.34 -0.232,2.676 -0.42,4.01 -1.477,-0.86 -1.402,-2.564 -1.567,-4.056 -1.08,0.045 -2.168,0.09 -3.248,0.142 M 62.79,70.2 c 0.18,10.97 -0.038,21.944 0.112,32.916 17.325,-0.015 34.658,0.12 51.975,-0.075 -0.023,-10.95 -0.083,-21.9 0.037,-32.856 -17.378,-0.03 -34.748,-0.06 -52.125,0.015 z"
       id="path198"
       inkscape:connector-curvature="0"
       style="opacity:0.95999995" />
    <path
       d="m 70.112,96.036 c 1.335,0.69 2.43,1.748 3.465,2.813 -1.118,0.83 -2.505,0.84 -3.825,0.98 0,-1.274 -0.023,-2.564 0.36,-3.794 z m 8.295,3.698 c 0.03,-1.463 -0.068,-3.075 1.207,-4.088 0.18,0.503 0.548,1.508 0.728,2.018 0.547,0.24 1.635,0.727 2.182,0.967 -1.11,1.096 -2.677,1.02 -4.117,1.104 z m 8.655,0.052 c 0.007,-1.462 -0.038,-3.037 1.095,-4.155 0.217,0.466 0.652,1.38 0.87,1.84 0.607,0.584 1.657,0.914 1.74,1.896 -1.23,0.218 -2.468,0.323 -3.705,0.42 z m 8.79,-0.3 c -0.503,-1.425 -0.03,-2.827 1.05,-3.832 0.21,0.51 0.622,1.522 0.832,2.032 0.525,0.225 1.568,0.683 2.093,0.915 -1.02,1.164 -2.558,1.314 -3.975,0.886 z m 8.46,0.27 c 0.135,-1.35 0.36,-2.7 0.742,-4.005 1.073,1.15 2.393,2.16 3.053,3.63 -1.253,0.21 -2.528,0.31 -3.795,0.376 z m -39.668,6.984 c 14.79,-0.316 29.603,0 44.4,-0.16 1.508,0.076 3.173,-0.2 4.515,0.684 -0.668,1.552 -2.476,0.99 -3.758,1.17 -15.03,-0.173 -30.083,0.225 -45.105,-0.195 -0.015,-0.376 -0.038,-1.126 -0.053,-1.5 z m 3.353,3.404 c 12.945,-0.165 25.905,-0.038 38.857,-0.083 1.485,-0.194 2.7,0.496 3.533,1.71 H 68.192 c -0.053,-0.404 -0.15,-1.22 -0.195,-1.626 z"
       id="path200"
       inkscape:connector-curvature="0"
       style="opacity:0.95999995" />
  </g>
  <g
     id="g206"
     style="fill:#9bd079">
    <path
       d="m 74.424,73.506 c 0.428,0.435 0.848,0.878 1.268,1.328 a 417.748,417.748 0 0 0 -4.83,4.815 c -1.05,-1.066 -2.1,-2.116 -3.165,-3.166 0.382,-0.308 1.155,-0.923 1.545,-1.238 0.397,0.465 1.192,1.38 1.59,1.838 1.185,-1.2 2.385,-2.4 3.592,-3.578 z m 8.566,0.114 c 0.404,0.24 1.222,0.72 1.634,0.96 -1.597,1.73 -3.292,3.366 -4.92,5.07 -1.065,-1.06 -2.175,-2.07 -3.157,-3.21 0.997,-1.846 2.19,-0.36 3.255,0.516 a 223.187,223.187 0 0 1 3.187,-3.337 z m 5.294,3.404 a 229.4,229.4 0 0 0 3.578,-3.57 c 0.322,0.36 0.967,1.08 1.282,1.447 -1.642,1.56 -3.247,3.166 -4.897,4.72 a 585.85,585.85 0 0 0 -3.008,-3.1 c 0.33,-0.336 1.004,-1.01 1.342,-1.35 l 1.702,1.854 z m 17.4,-0.044 a 214.56,214.56 0 0 0 3.443,-3.474 c 0.36,0.33 1.08,1.005 1.44,1.335 -1.673,1.584 -3.285,3.22 -4.973,4.786 -1.035,-1.402 -3.967,-2.737 -1.897,-4.56 0.495,0.48 1.492,1.433 1.987,1.913 z m -8.542,-0.076 c 1.155,-1.178 2.302,-2.385 3.615,-3.405 0.24,0.336 0.727,0.996 0.975,1.326 -1.478,1.695 -3.165,3.195 -4.71,4.823 -1.118,-1.11 -2.235,-2.214 -3.33,-3.34 1.252,-1.296 2.4,-0.39 3.45,0.594 z M 74.477,83.85 c 0.39,0.456 0.78,0.92 1.17,1.394 -1.59,1.612 -3.195,3.217 -4.793,4.83 a 154.767,154.767 0 0 0 -3.135,-3.143 c 0.382,-0.32 1.14,-0.974 1.514,-1.296 a 349.06,349.06 0 0 1 1.583,1.867 840.245,840.245 0 0 1 3.66,-3.65 z m 5.295,3.494 c 1.417,-0.96 2.955,-4.643 4.687,-2.4 -1.336,1.927 -3.18,3.412 -4.763,5.122 -1.065,-1.042 -2.153,-2.062 -3.135,-3.18 1.035,-1.792 2.167,-0.517 3.21,0.458 z m 8.52,0.096 c 1.215,-1.2 2.415,-2.414 3.607,-3.63 0.3,0.384 0.9,1.134 1.2,1.516 -1.62,1.56 -3.218,3.15 -4.846,4.703 a 575.7,575.7 0 0 0 -2.992,-3.04 c 0.322,-0.36 0.967,-1.086 1.29,-1.446 0.435,0.472 1.305,1.425 1.74,1.897 z m 8.715,0.016 a 77.12,77.12 0 0 1 3.877,-3.795 l 0.66,1.63 c -1.305,1.77 -3.03,3.17 -4.522,4.784 a 628.134,628.134 0 0 0 -3.165,-3.158 c 0.36,-0.3 1.087,-0.915 1.447,-1.222 l 1.703,1.762 z m 8.663,-0.03 c 1.177,-1.17 2.34,-2.355 3.494,-3.555 0.45,0.466 0.908,0.924 1.358,1.39 -1.635,1.566 -3.225,3.164 -4.838,4.74 a 387.3,387.3 0 0 1 -3.105,-2.994 c 0.322,-0.352 0.967,-1.072 1.29,-1.425 0.45,0.46 1.35,1.38 1.8,1.846 z"
       id="path204"
       inkscape:connector-curvature="0" />
  </g>
  <g
     id="g210"
     style="fill:#272727">
    <path
       d="m 127.777,54.77 h 13.013 l -0.19,0.286 c -0.195,0.308 -0.596,0.915 -0.8,1.223 -4.238,-0.01 -8.474,-0.016 -12.71,0.02 l -1.114,0.024 a 35.005,35.005 0 0 1 1.8,-1.553 z m 17.393,0 h 12.56 c 0.636,0.46 1.264,0.93 1.884,1.41 l -1.15,0.06 c -4.736,0.36 -9.57,-0.57 -14.223,0.55 l -0.15,-1.03 c 0.272,-0.246 0.81,-0.74 1.08,-0.99 z m 17.214,0 h 12.854 a 34.7,34.7 0 0 1 1.937,1.54 l -1.18,-0.024 c -4.192,-0.007 -8.39,-0.022 -12.582,-0.007 -0.227,-0.34 -0.69,-1.014 -0.916,-1.35 z m -30.96,51.85 c 0.325,0.2 0.983,0.62 1.31,0.83 1.08,-0.314 2.193,-0.464 3.313,-0.546 -0.03,1.05 0.522,1.875 1.218,2.61 a 54.798,54.798 0 0 1 -3.2,-2.363 c 0.045,0.616 0.128,1.84 0.173,2.454 -0.847,-1.508 -2.572,0.247 -3.51,-0.968 a 5.672,5.672 0 0 1 0.696,-2.017 z"
       id="path208"
       inkscape:connector-curvature="0"
       style="opacity:0.76000001" />
  </g>
  <path
     d="m 139.8,56.28 c 0.204,-0.31 0.605,-0.916 0.8,-1.224 0.357,0.353 1.068,1.05 1.424,1.403 -0.03,3.41 0.15,6.824 -0.03,10.236 0,1.103 -1.22,1.965 -2.27,1.95 -3.745,0.135 -7.513,0.12 -11.266,0.015 -1.445,0.09 -2.71,-1.19 -2.625,-2.616 -0.106,-3.24 -0.197,-6.495 0.143,-9.72 l 1.113,-0.023 c -0.062,3.48 -0.26,6.97 -0.04,10.45 0.175,0.164 0.523,0.494 0.69,0.66 4.297,0.306 8.61,-0.01 12.914,0.134 0.477,-3.72 0.575,-7.53 0.008,-11.243 z"
     id="path212"
     inkscape:connector-curvature="0"
     style="fill:#323232" />
  <path
     d="m 160.97,57.726 c -0.153,-1.2 0.892,-1.95 1.527,-2.797 0.227,0.336 0.69,1.01 0.916,1.35 l -0.97,0.044 c -0.317,3.705 -0.226,7.44 -0.022,11.152 4.473,-0.082 8.982,0.338 13.43,-0.202 0.5,-3.638 0.137,-7.328 0.145,-10.988 l 1.18,0.023 c 0.325,3.24 0.227,6.51 0.144,9.756 0.074,1.17 -0.826,2.295 -1.968,2.535 -3.284,0.324 -6.598,0.084 -9.89,0.16 -1.527,-0.04 -3.547,0.14 -4.304,-1.53 -0.462,-3.136 -0.197,-6.346 -0.19,-9.504 z"
     id="path214"
     inkscape:connector-curvature="0"
     style="opacity:0.92000002;fill:#2f2f2f" />
  <path
     d="m 143.492,66.02 c 0.15,-3.396 -0.636,-7.01 0.597,-10.26 l 0.15,1.03 c 0.68,3.56 -0.09,7.206 0.63,10.76 4.356,-0.15 8.73,0.16 13.08,-0.134 l 0.53,-0.757 c 0.264,-3.466 0.03,-6.946 -0.016,-10.42 l 1.15,-0.06 c -0.098,3.736 0.303,7.486 -0.174,11.2 -0.22,0.23 -0.673,0.696 -0.9,0.93 -3.64,0.86 -7.498,0.216 -11.228,0.41 -1.725,0.22 -4.19,-0.54 -3.82,-2.7 z"
     id="path216"
     inkscape:connector-curvature="0"
     style="fill:#323232" />
  <path
     d="m 133.21,62.226 c 1.12,-0.847 2.51,-4.14 4.002,-2.115 -1.014,1.786 -2.73,3.03 -4.14,4.494 a 70.68,70.68 0 0 1 -1.99,-1.988 c -1.012,-0.382 -0.316,-2.1 0.667,-1.65 0.514,0.39 0.998,0.81 1.46,1.26 z"
     id="path218"
     inkscape:connector-curvature="0"
     style="opacity:0.86000001;fill:#86b369" />
  <path
     d="m 153.592,59.294 c 0.356,0.21 1.06,0.645 1.415,0.862 a 35.573,35.573 0 0 1 -4.426,4.358 c -0.892,-0.855 -1.785,-1.703 -2.678,-2.558 0.41,-0.42 0.81,-0.84 1.22,-1.26 0.377,0.375 1.126,1.125 1.504,1.5 1,-0.967 1.982,-1.935 2.966,-2.902 z"
     id="path220"
     inkscape:connector-curvature="0"
     style="opacity:0.87999998;fill:#89b86b" />
  <path
     d="m 171.327,59.144 c 0.4,0.45 0.794,0.9 1.187,1.357 a 68.218,68.218 0 0 0 -4.176,4.044 c -0.93,-0.848 -1.876,-1.673 -2.73,-2.588 0.316,-0.322 0.96,-0.967 1.277,-1.29 l 1.392,1.56 c 1.007,-1.042 2.02,-2.07 3.05,-3.082 z"
     id="path222"
     inkscape:connector-curvature="0"
     style="opacity:0.88999999;fill:#8bba6d" />
  <g
     id="g226"
     style="fill:#2e2e2e">
    <path
       d="m 127.073,70.55 c 3.443,-0.516 6.954,-0.11 10.42,-0.254 1.52,0.075 3.494,-0.3 4.41,1.253 0.355,3.65 0.03,7.34 0.143,11.01 -0.514,0.486 -1.036,0.974 -1.55,1.47 -4.275,-0.076 -8.558,0.12 -12.825,-0.07 -2.768,-1.01 -1.73,-4.46 -1.928,-6.696 0.272,-2.213 -0.802,-5.16 1.33,-6.713 m -0.165,1.56 c 0.19,3.466 0.045,6.94 0.114,10.404 4.298,0.472 8.648,0.27 12.97,0.187 1.406,-0.35 0.838,-2.09 0.975,-3.11 -0.212,-2.724 0.484,-5.59 -0.545,-8.2 -3.503,0.016 -7,-0.02 -10.494,-0.02 -1.082,-0.1 -2.103,0.194 -3.02,0.74 z m -0.553,14.424 c 1.93,-1.868 4.933,-0.705 7.33,-1.02 2.8,0.307 6.296,-0.983 8.4,1.455 -0.16,3.674 0.135,7.356 -0.137,11.024 -0.923,1.597 -2.913,1.312 -4.47,1.357 -3.24,-0.096 -6.493,0.15 -9.724,-0.134 -2.534,-0.51 -1.952,-3.592 -2.012,-5.482 0.234,-2.378 -0.568,-5.01 0.613,-7.2 m 0.78,0.697 c -0.387,3.414 0.075,6.87 -0.236,10.3 4.304,1.46 9.07,0.24 13.565,0.66 0.923,-3.654 0.522,-7.57 0.235,-11.296 -4.502,0.09 -9.178,-0.608 -13.566,0.337 z M 145.14,85.64 c 4.238,-0.224 8.505,-0.194 12.742,-0.02 2.935,1.2 1.4,4.986 1.785,7.4 -0.174,2.176 0.908,6.226 -2.45,6.27 -4.215,-0.08 -8.528,0.436 -12.68,-0.3 -0.236,-0.24 -0.705,-0.71 -0.932,-0.95 -0.28,-3.43 -0.16,-6.88 -0.09,-10.314 -0.13,-1.005 0.854,-1.68 1.626,-2.085 m -0.55,2.29 c -0.062,3.09 -0.085,6.186 0.006,9.276 0.182,0.218 0.545,0.66 0.726,0.878 2.702,0.232 5.41,0.022 8.12,0.105 1.746,-0.046 3.623,0.276 5.204,-0.66 -0.212,-3.49 -0.038,-6.984 -0.136,-10.48 -3.707,-0.45 -7.46,-0.186 -11.183,-0.254 -0.892,0.12 -2.746,-0.232 -2.738,1.133 z"
       id="path224"
       inkscape:connector-curvature="0"
       style="opacity:0.91000001" />
  </g>
  <path
     d="m 143.552,72.036 c 0.045,-1.072 1.256,-1.74 2.262,-1.672 3.768,-0.105 7.56,-0.09 11.334,-0.008 1.105,-0.112 2.398,0.57 2.414,1.785 0.196,3.19 0.12,6.39 0.045,9.58 0.136,1.304 -1.165,2.354 -2.406,2.294 -4.077,0.082 -8.163,-0.068 -12.24,0.06 -0.5,-0.728 -1.582,-1.238 -1.446,-2.258 -0.09,-3.255 -0.136,-6.525 0.038,-9.78 m 1.793,-0.525 c -0.19,0.22 -0.567,0.654 -0.75,0.87 -0.044,3.25 -0.158,6.52 0.07,9.76 0.756,1.064 2.352,0.44 3.464,0.65 3.472,-0.104 6.96,0.22 10.41,-0.29 0.03,-3.48 -0.083,-6.96 0.098,-10.44 -1.61,-0.97 -3.525,-0.646 -5.318,-0.684 -2.656,0.083 -5.327,-0.165 -7.975,0.135 z"
     id="path228"
     inkscape:connector-curvature="0"
     style="opacity:0.9;fill:#2e2e2e" />
  <path
     d="m 160.893,71.94 c 0.742,-0.564 1.27,-1.69 2.353,-1.57 3.79,-0.134 7.596,-0.09 11.387,-0.03 1.407,-0.194 2.746,1.074 2.724,2.454 0.037,2.97 0.098,5.947 -0.03,8.917 -0.03,1.336 -1.4,2.484 -2.74,2.31 -4.01,0.054 -8.027,-0.03 -12.037,0.01 -0.537,-0.55 -1.067,-1.09 -1.604,-1.63 -0.015,-3.486 0.053,-6.98 -0.053,-10.46 m 1.642,-0.49 c -0.424,3.72 -0.257,7.47 -0.12,11.2 4.554,0.104 9.13,0.33 13.663,-0.144 0.007,-3.517 -0.045,-7.035 0.038,-10.552 -4.373,-1.23 -9.072,-0.3 -13.58,-0.503 z"
     id="path230"
     inkscape:connector-curvature="0"
     style="opacity:0.87000002;fill:#2d2d2d" />
  <path
     d="m 133.338,77.24 c 1.044,-0.84 1.914,-1.85 2.822,-2.826 0.257,0.337 0.764,1.005 1.022,1.335 -1.324,1.356 -2.527,3.006 -4.207,3.9 -0.832,-0.88 -2.754,-1.65 -2.27,-3.09 1.044,-1.036 1.665,0.86 2.633,0.68 z"
     id="path232"
     inkscape:connector-curvature="0"
     style="opacity:0.93000022;fill:#92c372" />
  <g
     id="g236"
     style="fill:#2d2d2d">
    <path
       d="m 166.348,75.824 c 0.34,0.412 1.014,1.237 1.354,1.65 0.31,-0.33 0.94,-1.005 1.256,-1.343 1.498,0.414 3.382,-0.546 4.063,1.426 -2.51,0.375 -5.06,-0.06 -7.58,0.3 0.31,-0.675 0.613,-1.357 0.908,-2.032 z m -17.833,0.292 c 0.878,0.293 1.748,0.6 2.618,0.923 a 91.09,91.09 0 0 0 1.347,-1.036 l 0.212,1.312 1.997,-1.5 c -0.462,3.015 -4.026,1.545 -6.107,2.138 -0.015,-0.465 -0.053,-1.38 -0.068,-1.838 z m -22.705,27.428 c -0.015,-1.095 0.696,-2.385 1.9,-2.49 3.494,-0.36 7.028,-0.12 10.546,-0.165 1.4,-0.114 2.678,0.464 3.85,1.146 -0.105,3.743 -0.067,7.493 -0.037,11.235 a 68.53,68.53 0 0 1 -1.817,1.5 H 127.7 c -0.68,-0.666 -1.754,-1.19 -1.83,-2.256 -0.264,-2.978 -0.19,-5.985 -0.06,-8.97 m 2.035,-1.425 c -0.204,0.21 -0.613,0.62 -0.824,0.83 -0.098,3.406 0.008,6.804 0.016,10.21 4.517,0.38 9.056,0.126 13.588,0.17 0.598,-3.35 0.288,-6.794 0.257,-10.176 -0.142,-0.248 -0.422,-0.758 -0.56,-1.005 -4.145,-0.21 -8.32,-0.18 -12.475,-0.03 z m 16.653,-0.839 c 3.397,-0.804 6.953,-0.234 10.41,-0.406 1.544,0.127 3.625,-0.3 4.54,1.29 0.41,3.435 0.272,6.915 0.13,10.357 0.074,1.08 -1.023,1.614 -1.69,2.25 h -12.71 c -0.59,-0.69 -1.762,-1.176 -1.65,-2.25 -0.12,-3.434 -0.233,-6.9 0.092,-10.326 0.22,-0.225 0.658,-0.69 0.878,-0.915 m 0.78,0.87 c -0.175,0.23 -0.508,0.696 -0.674,0.93 0.015,3.41 -0.34,6.876 0.265,10.26 4.553,-0.07 9.115,0.216 13.655,-0.196 -0.023,-3.405 0.106,-6.818 -0.008,-10.223 -0.18,-0.194 -0.537,-0.584 -0.718,-0.78 -4.163,-0.186 -8.362,-0.2 -12.523,0.01 z m 15.872,0.26 c 0.855,-1.97 3.352,-1.4 5.077,-1.544 3.253,0.165 6.582,-0.345 9.783,0.36 2.08,1.29 1.173,4.02 1.4,6.03 -0.197,2.573 0.77,5.82 -1.81,7.515 h -12.687 a 84.283,84.283 0 0 1 -1.99,-1.61 c 0.19,-3.58 -0.295,-7.2 0.227,-10.75 m 1.317,-0.3 c -0.303,3.714 -0.227,7.456 -0.038,11.176 4.523,0.075 9.063,0.165 13.587,-0.06 0.046,-3.472 0.152,-6.945 0,-10.41 l -0.77,-0.705 c -4.253,-0.18 -8.52,-0.09 -12.78,0 z"
       id="path234"
       inkscape:connector-curvature="0"
       style="opacity:0.88999999" />
  </g>
  <path
     d="m 160.916,87.134 c 2.18,-2.798 6.083,-1.223 9.117,-1.62 2.36,0.27 5.757,-0.983 7.134,1.627 0.492,2.926 0.09,5.934 0.227,8.89 0.318,1.664 -1.05,3.464 -2.83,3.284 -3.775,0.045 -7.558,0.112 -11.333,-0.038 -1.073,0.075 -1.86,-0.892 -2.216,-1.777 -0.212,-3.45 0.038,-6.916 -0.098,-10.366 m 1.505,-0.173 c -0.127,3.73 -0.324,7.48 0.13,11.19 4.51,-0.246 9.155,0.61 13.566,-0.464 -0.083,-3.547 0,-7.102 -0.083,-10.657 -4.525,-0.354 -9.08,-0.264 -13.612,-0.07 z"
     id="path238"
     inkscape:connector-curvature="0"
     style="opacity:0.87000002;fill:#2c2c2c" />
  <path
     d="m 131.704,91.77 c 1.286,0.014 0.552,1.83 -0.37,1.844 -1.234,0 -0.523,-1.845 0.37,-1.845 z"
     id="path240"
     inkscape:connector-curvature="0"
     style="opacity:0.58999999;fill:#1e1e1e" />
  <path
     d="m 135.98,91.77 c 2.503,0.126 -1.16,2.264 0,0 z"
     id="path242"
     inkscape:connector-curvature="0"
     style="opacity:0.77999998;fill:#282828" />
  <path
     d="m 148.243,91.994 c 0.605,-1.17 3.125,-0.773 4.176,-0.105 -1.22,0.93 -2.838,0.486 -4.177,0.104 z"
     id="path244"
     inkscape:connector-curvature="0"
     style="opacity:0.31000001;fill:#0f0f0f" />
  <path
     d="m 152.42,91.89 0.862,-0.534 c 0.386,0.533 1.165,1.59 1.55,2.123 -2.352,0.126 -4.72,-0.016 -7.066,0.24 0.12,-0.43 0.356,-1.29 0.477,-1.726 1.34,0.382 2.958,0.825 4.176,-0.105 z"
     id="path246"
     inkscape:connector-curvature="0"
     style="opacity:0.57999998;fill:#1d1d1d" />
  <path
     d="m 165.357,91.76 c 2.14,0.054 4.275,-0.036 6.408,-0.2 -0.053,0.434 -0.15,1.304 -0.204,1.74 0.334,0.05 1,0.156 1.333,0.2 -0.19,0.16 -0.575,0.474 -0.764,0.63 -0.735,-0.486 -1.484,-0.96 -2.233,-1.43 l -0.076,-0.054 -0.082,0.143 c -0.5,1.61 -2.595,0.854 -3.83,1.184 -0.18,-0.735 -0.37,-1.478 -0.55,-2.213 z"
     id="path248"
     inkscape:connector-curvature="0"
     style="opacity:0.56999978;fill:#1d1d1d" />
  <path
     d="m 133.928,92.61 c 0.212,0.21 0.212,0.21 0,0 z"
     id="path250"
     inkscape:connector-curvature="0"
     style="opacity:0.91000001;fill:#2e2e2e" />
  <path
     d="m 169.738,92.79 0.083,-0.144 0.077,0.053 z"
     id="path252"
     inkscape:connector-curvature="0"
     style="opacity:0.97000002;fill:#313131" />
  <path
     d="m 147.797,107.496 c 2.322,0.3 4.668,0.225 6.99,0.023 -0.302,0.62 -0.597,1.25 -0.9,1.88 -0.272,-0.284 -0.81,-0.846 -1.082,-1.124 -1.294,1.5 -3.352,0.69 -5.046,0.69 0.006,-0.367 0.03,-1.102 0.037,-1.47 z"
     id="path254"
     inkscape:connector-curvature="0"
     style="opacity:0.85;fill:#2b2b2b" />
  <path
     d="m 166.03,107.174 c 1.627,0.037 3.254,0.052 4.888,0.06 0.15,0.772 0.31,1.545 0.47,2.325 -1.756,-0.25 -3.534,-0.21 -5.29,-0.016 -0.332,-0.765 -0.264,-1.575 -0.068,-2.37 m 1.998,1.042 c 0.355,0.33 0.355,0.33 0,0 z"
     id="path256"
     inkscape:connector-curvature="0"
     style="opacity:0.47000002;fill:#181818" />
  <path
     d="m 168.028,108.216 c 0.355,0.33 0.355,0.33 0,0 z"
     id="path258"
     inkscape:connector-curvature="0"
     style="fill:#333333" />
  <g
     id="g272">
    <g
       id="g264"
       style="fill:#323032">
      <path
         d="m 19.934,59.724 c 13.04,-4.06 27.912,4.454 31.64,17.447 3.75,11.4 -2.007,24.65 -12.526,30.185 -9.214,5.216 -21.552,3.706 -29.31,-3.473 C 3.002,97.992 -0.41,88.428 1.5,79.625 3.312,70.248 10.745,62.261 19.936,59.725 m -4.354,3.782 c -7.252,4 -12.06,11.68 -12.587,19.938 1.162,0.098 2.332,0.136 3.48,0.355 1.704,2.106 -2.205,1.797 -3.465,2.016 0.513,9.316 6.693,17.847 15.41,21.176 2.384,0.71 4.828,1.185 7.296,1.51 0.15,-1.29 -0.113,-2.733 0.65,-3.88 0.4,0.105 1.206,0.31 1.614,0.415 a 170.737,170.737 0 0 0 -0.19,3.397 c 4.997,-0.28 9.94,-1.963 13.863,-5.12 5.396,-4.19 8.65,-10.817 8.988,-17.612 -1.17,-0.128 -2.43,0.098 -3.53,-0.4 -1.397,-2.136 2.383,-1.6 3.598,-1.82 -0.46,-4.952 -2.052,-9.882 -5.252,-13.762 -4.18,-5.375 -10.76,-8.508 -17.5,-8.94 -0.308,1.247 0.53,4.1 -1.576,3.836 -0.845,-1.102 -0.49,-2.59 -0.664,-3.873 -3.51,0.363 -6.95,1.254 -10.134,2.764 z"
         id="path260"
         inkscape:connector-curvature="0"
         style="opacity:0.98000004" />
      <path
         d="m 28.747,81.218 c 1.97,-1.933 3.796,-4.032 6.03,-5.662 0.286,0.28 0.86,0.845 1.147,1.125 -1.645,2.19 -3.72,4.002 -5.63,5.95 0.023,1.32 0.023,2.642 0.015,3.963 2.844,3.058 6.05,5.768 8.715,8.992 -0.302,0.31 -0.898,0.928 -1.192,1.245 -3.245,-2.68 -5.984,-5.896 -9.033,-8.78 -1.29,0.136 -2.58,0.264 -3.87,0.378 -0.725,-1.103 -1.525,-2.19 -1.978,-3.435 0.03,-1.412 1.026,-2.522 1.81,-3.61 1.322,-0.12 2.657,-0.15 3.985,-0.165 m -3.108,1.548 0.315,0.55 c -1.886,-0.045 -1.426,3.262 0.28,2.907 l -0.166,0.5 a 63.945,63.945 0 0 0 3.025,-1.806 c -0.823,-1.2 -2.008,-1.97 -3.456,-2.15 z"
         id="path262"
         inkscape:connector-curvature="0"
         style="opacity:0.98000004" />
    </g>
    <g
       id="g270"
       style="fill:#9cd17a">
      <path
         d="m 15.58,63.507 c 3.184,-1.51 6.625,-2.4 10.134,-2.764 0.174,1.284 -0.18,2.77 0.664,3.873 2.105,0.265 1.268,-2.59 1.577,-3.835 6.74,0.432 13.32,3.565 17.5,8.94 3.2,3.88 4.79,8.81 5.25,13.763 -1.214,0.22 -4.994,-0.317 -3.598,1.82 1.102,0.497 2.362,0.27 3.53,0.4 -0.338,6.794 -3.59,13.422 -8.986,17.612 -3.923,3.156 -8.865,4.84 -13.86,5.12 0.052,-1.133 0.112,-2.266 0.188,-3.398 -0.408,-0.106 -1.215,-0.31 -1.615,-0.415 -0.762,1.147 -0.498,2.59 -0.65,3.88 -2.467,-0.325 -4.91,-0.8 -7.296,-1.51 2.173,-6.183 4.37,-12.366 6.512,-18.564 1.29,-0.114 2.58,-0.242 3.87,-0.378 3.05,2.884 5.788,6.1 9.033,8.78 0.294,-0.317 0.89,-0.936 1.192,-1.245 -2.664,-3.224 -5.87,-5.934 -8.716,-8.992 0.007,-1.32 0.007,-2.642 -0.016,-3.963 1.91,-1.948 3.985,-3.76 5.63,-5.95 -0.287,-0.28 -0.86,-0.845 -1.147,-1.124 -2.234,1.63 -4.06,3.73 -6.03,5.662 -1.328,0.015 -2.663,0.045 -3.984,0.166 -3.11,-5.934 -6.052,-11.96 -9.183,-17.877 z"
         id="path266"
         inkscape:connector-curvature="0" />
      <path
         d="m 25.64,82.766 c 1.447,0.18 2.632,0.95 3.455,2.15 -0.99,0.628 -2,1.232 -3.026,1.806 l 0.165,-0.5 a 2.775,2.775 0 0 0 -0.28,-2.905 z"
         id="path268"
         inkscape:connector-curvature="0" />
    </g>
  </g>
  <g
     id="g292">
    <g
       id="g276"
       style="fill:#191919">
      <path
         d="m 39.923,123.78 h 2.75 c 1.22,1.148 2.286,2.438 3.324,3.743 -1.226,1.448 -2.158,3.698 -4.3,3.855 -1.616,-0.06 -2.976,-1.192 -3.668,-2.595 -0.707,-1.942 0.946,-3.502 1.893,-5.002 m -0.69,2.25 c 0.254,1.336 -0.07,3.616 1.81,3.826 2.203,0.705 4.06,-2.52 2.135,-3.945 -0.985,-1.357 -2.69,-0.074 -3.946,0.12 z m 23.692,-2.251 h 2.3 c 1.218,1.148 2.285,2.438 3.322,3.743 -1.225,1.448 -2.157,3.69 -4.3,3.855 -2.224,-0.097 -4.35,-2.302 -3.757,-4.59 0.42,-1.26 1.517,-2.115 2.434,-3.007 m -1.15,2.266 c 0.263,1.327 -0.053,3.585 1.804,3.802 2.195,0.728 4.074,-2.49 2.165,-3.915 -0.97,-1.395 -2.72,-0.097 -3.97,0.113 z m 24.46,-2.267 h 2.3 c 1.202,1.148 2.27,2.43 3.307,3.736 -1.158,1.545 -2.172,3.63 -4.307,3.952 -1.924,-0.255 -3.924,-1.83 -3.81,-3.915 -0.06,-1.665 1.457,-2.715 2.51,-3.772 m -1.158,2.273 c 0.27,1.32 -0.053,3.57 1.79,3.795 2.18,0.735 4.08,-2.437 2.2,-3.885 -0.96,-1.432 -2.727,-0.142 -3.99,0.09 z m 23.7,-2.274 h 2.307 c 1.203,1.148 2.27,2.43 3.307,3.736 -1.158,1.537 -2.165,3.615 -4.285,3.952 -1.947,-0.24 -3.96,-1.837 -3.833,-3.945 -0.038,-1.642 1.458,-2.692 2.503,-3.742 m -0.947,2.198 -0.023,3.225 c 1.218,0.315 2.924,1.298 3.88,-0.03 0.983,-0.817 0.9,-2.422 -0.07,-3.21 -0.916,-1.372 -2.57,-0.217 -3.787,0.015 z M 17.32,178.088 c -3.223,-1.5 -2.164,-6.352 1.084,-7.042 2.48,-0.518 3.773,2.01 4.848,3.742 -0.97,2.205 -3.293,5.07 -5.93,3.3 m -0.647,-4.792 c 0.263,1.335 -0.045,3.607 1.82,3.81 2.18,0.705 4.043,-2.49 2.163,-3.923 -1.014,-1.365 -2.713,-0.127 -3.983,0.113 z m 23.195,4.792 c -3.24,-1.5 -2.15,-6.39 1.12,-7.05 2.474,-0.48 3.736,2.025 4.82,3.758 -0.978,2.197 -3.31,5.062 -5.94,3.292 m -0.638,-4.792 c 0.255,1.327 -0.06,3.592 1.796,3.802 2.203,0.728 4.082,-2.512 2.15,-3.93 -1,-1.35 -2.698,-0.097 -3.946,0.128 z m 20.971,2.827 c 0.188,-2.1 0.977,-4.537 3.3,-5.077 2.48,-0.518 3.765,2.002 4.848,3.735 -0.94,1.658 -1.946,3.66 -4.08,3.908 -1.714,-0.12 -2.842,-1.552 -4.067,-2.565 m 1.578,-2.842 c 0.264,1.328 -0.066,3.586 1.783,3.818 2.202,0.743 4.104,-2.497 2.172,-3.922 -0.955,-1.395 -2.706,-0.083 -3.954,0.105 z m 23.924,4.798 c -3.217,-1.507 -2.127,-6.374 1.128,-7.042 2.465,-0.487 3.736,2.018 4.826,3.735 -0.963,2.22 -3.323,5.1 -5.954,3.308 m -0.428,-4.86 a 465.55,465.55 0 0 0 -0.015,3.24 c 1.203,0.3 2.886,1.283 3.856,-0.014 1.014,-0.833 0.923,-2.483 -0.084,-3.278 -0.94,-1.305 -2.555,-0.172 -3.758,0.053 z m 22.985,4.859 c -3.224,-1.507 -2.142,-6.36 1.105,-7.042 2.48,-0.495 3.75,2.018 4.834,3.743 -0.963,2.213 -3.308,5.086 -5.94,3.3 m -0.442,-4.86 c 0,1.08 -0.007,2.16 -0.015,3.233 1.233,0.315 2.924,1.305 3.894,-0.045 0.968,-0.81 0.885,-2.4 -0.07,-3.187 -0.93,-1.364 -2.585,-0.24 -3.81,0 z"
         id="path274"
         inkscape:connector-curvature="0"
         style="opacity:0.87000002" />
    </g>
    <g
       id="g282"
       style="fill:#9cd17a">
      <path
         d="m 17.043,124.508 c 2.638,-2.07 6.622,1.208 5.472,4.178 -0.722,2.895 -5.277,3.367 -6.614,0.735 -1.06,-1.62 -0.383,-3.854 1.143,-4.912 z"
         id="path278"
         inkscape:connector-curvature="0" />
      <path
         d="m 12.142,134.43 c 1.42,-3.33 5.653,-2.482 8.547,-2.587 2.33,-0.225 5.117,0.923 5.5,3.48 0.24,3.825 0.204,7.688 0.03,11.513 0.068,1.575 -2.006,1.462 -3.028,2.077 0.03,3.645 0.157,7.305 0.015,10.95 0.015,1.088 -0.542,2.235 -1.804,2.01 -2.15,-0.06 -5.472,1.028 -6.63,-1.395 -0.225,-3.495 0.083,-6.997 -0.038,-10.5 0.076,-1.702 -2.044,-1.642 -3.104,-2.347 v -0.45 c 0.1,-0.202 0.287,-0.6 0.384,-0.794 -0.135,-3.96 -0.76,-8.063 0.128,-11.955 z"
         id="path280"
         inkscape:connector-curvature="0" />
    </g>
    <g
       id="g286"
       style="fill:#1d1d1d">
      <path
         d="m 34.21,136.463 c -0.022,-2.077 1.49,-4.305 3.676,-4.477 2.27,-0.105 4.548,-0.023 6.825,-0.038 2.4,-0.135 4.346,2.273 4.188,4.575 0.015,3.518 0.18,7.058 -0.105,10.575 -0.286,1.32 -1.992,1.29 -3,1.808 -0.105,4.087 0.422,8.242 -0.247,12.292 -1.977,1.598 -4.88,0.54 -7.24,0.908 -2.148,-4.005 -0.555,-8.835 -1.044,-13.185 a 80.742,80.742 0 0 1 -3.14,-1.522 c 0.134,-3.645 -0.04,-7.297 0.09,-10.935 m 1.404,-1.717 c 0.166,3.975 -0.218,7.965 0.18,11.925 0.354,0.226 1.06,0.683 1.414,0.908 0.188,-3.24 -0.158,-6.502 0.173,-9.727 0.293,-0.232 0.872,-0.697 1.165,-0.93 0.27,7.876 0.045,15.766 0.135,23.648 l 2.255,0.06 c -0.03,-4.072 -0.022,-8.145 -0.015,-12.217 0.346,0 1.03,0.008 1.376,0.008 -0.024,4.073 -0.01,8.145 -0.024,12.218 0.57,-0.03 1.72,-0.083 2.3,-0.113 0.075,-7.792 -0.24,-15.607 0.15,-23.392 0.256,0.136 0.775,0.413 1.03,0.556 0.256,3.277 -0.037,6.577 0.12,9.862 3,-0.69 1.3,-4.312 1.744,-6.495 -0.308,-2.505 1.06,-6.517 -2.052,-7.65 -3.292,-0.24 -7.26,-1.102 -9.952,1.343 z m 21.143,1.709 c -0.015,-2.093 1.51,-4.32 3.73,-4.478 2.253,-0.142 4.516,-0.03 6.778,-0.03 2.406,-0.127 4.345,2.288 4.18,4.59 0.015,3.503 0.18,7.028 -0.106,10.523 -0.21,1.373 -2.014,1.298 -2.99,1.853 -0.137,4.088 0.45,8.25 -0.28,12.285 -1.946,1.628 -4.87,0.525 -7.208,0.908 -2.164,-4.005 -0.563,-8.828 -1.06,-13.17 -1.037,-0.533 -2.112,-0.99 -3.134,-1.553 0.135,-3.637 -0.037,-7.282 0.09,-10.927 m 1.413,-1.725 c 0.15,3.976 -0.225,7.98 0.173,11.94 0.354,0.226 1.053,0.683 1.406,0.908 0.12,-3.36 0.075,-6.72 0.007,-10.08 l 1.473,-0.09 c -0.03,7.718 -0.008,15.435 0,23.16 0.563,0.015 1.69,0.045 2.255,0.068 -0.03,-4.08 -0.023,-8.153 -0.015,-12.225 0.345,0 1.03,0.008 1.375,0.008 -0.022,4.073 -0.007,8.145 -0.022,12.218 0.57,-0.03 1.72,-0.083 2.3,-0.113 0.045,-7.912 -0.196,-15.825 0.127,-23.73 0.263,0.323 0.782,0.975 1.038,1.305 0.28,3.143 -0.014,6.3 0.136,9.458 l 1.624,-0.87 c 0.24,-3.398 0.112,-6.825 0.075,-10.23 0.173,-1.71 -1.248,-3.3 -2.984,-3.218 -3.02,-0.022 -6.546,-0.795 -8.967,1.493 z m 21.957,0.966 c 0.277,-2.475 2.713,-4.132 5.14,-3.817 3.255,0.03 8.17,-0.922 9.32,3.203 0.362,3.72 0.19,7.485 0.136,11.22 0.308,1.883 -1.82,2.078 -3.074,2.61 -0.105,4.08 0.39,8.213 -0.233,12.255 -1.97,1.65 -4.894,0.57 -7.262,0.938 -2.142,-4.013 -0.564,-8.828 -1.045,-13.178 a 76.05,76.05 0 0 1 -3.142,-1.537 c 0.174,-3.892 -0.12,-7.8 0.16,-11.692 m 1.337,-0.952 c 0.165,3.975 -0.218,7.965 0.18,11.925 0.354,0.226 1.06,0.683 1.414,0.908 0.19,-3.232 -0.165,-6.487 0.173,-9.705 0.286,-0.255 0.857,-0.75 1.143,-0.997 0.33,7.89 0.053,15.795 0.158,23.692 l 2.255,0.06 c -0.03,-4.072 -0.024,-8.145 -0.016,-12.217 0.338,0.008 1.03,0.008 1.375,0.016 -0.023,4.065 -0.008,8.137 -0.023,12.21 0.57,-0.03 1.72,-0.083 2.3,-0.105 0.045,-7.912 -0.196,-15.832 0.128,-23.737 0.263,0.33 0.78,0.99 1.044,1.32 0.27,3.135 -0.023,6.293 0.127,9.435 0.406,-0.21 1.218,-0.645 1.624,-0.862 0.21,-3.608 0.166,-7.245 0.03,-10.853 -0.067,-1.492 -1.442,-2.625 -2.9,-2.587 -3.03,-0.008 -6.593,-0.84 -9.013,1.5 z m 21.143,1.7 c -0.014,-2.077 1.497,-4.282 3.677,-4.462 2.706,-0.173 5.457,-0.293 8.14,0.127 2.082,0.765 3.112,3.023 2.894,5.138 -0.097,3.48 0.324,7.013 -0.285,10.456 -0.864,0.57 -1.88,0.84 -2.833,1.2 -0.128,4.087 0.436,8.242 -0.27,12.277 -1.94,1.65 -4.88,0.54 -7.232,0.923 -2.12,-4.02 -0.564,-8.828 -1.037,-13.185 a 75.806,75.806 0 0 1 -3.142,-1.522 c 0.136,-3.652 -0.037,-7.305 0.09,-10.95 m 1.595,-1.38 a 76.647,76.647 0 0 0 -0.008,11.603 c 0.353,0.233 1.06,0.683 1.413,0.908 0.188,-3.232 -0.165,-6.495 0.173,-9.72 l 1.15,-0.967 c 0.308,7.883 0.053,15.788 0.15,23.678 l 2.255,0.06 c 0.015,-4.23 -0.142,-8.475 0.113,-12.705 0.272,0.255 0.82,0.758 1.09,1.013 0.392,3.877 0.03,7.8 0.136,11.7 0.572,-0.03 1.722,-0.083 2.3,-0.113 0.045,-7.912 -0.195,-15.825 0.128,-23.73 0.263,0.338 0.782,1.02 1.045,1.358 0.27,3.128 -0.024,6.27 0.127,9.406 l 1.623,-0.87 c 0.173,-3.803 0.256,-7.65 -0.067,-11.453 -0.752,-2.445 -3.714,-2.025 -5.698,-2.1 -2.007,0.135 -5.05,-0.487 -5.93,1.935 z M 11.63,182.228 c 1.948,-4.065 6.9,-3.157 10.577,-3.045 2.413,-0.022 4.27,2.273 4.12,4.605 0.067,3.675 0.33,7.41 -0.257,11.055 -0.864,0.63 -1.91,0.938 -2.796,1.523 0,3.825 0.008,7.642 0.023,11.46 -0.27,0.367 -0.827,1.095 -1.098,1.455 h -6.6 c -1.736,-4.147 -0.58,-8.79 -0.865,-13.147 A 160.103,160.103 0 0 1 11.63,194.822 V 182.23 m 1.444,-0.247 c 0.15,3.976 -0.225,7.98 0.173,11.94 0.353,0.226 1.06,0.683 1.413,0.908 0.188,-3.232 -0.158,-6.487 0.173,-9.705 0.286,-0.247 0.857,-0.735 1.15,-0.982 0.308,7.883 0.053,15.78 0.15,23.678 l 2.255,0.06 c -0.03,-4.072 -0.022,-8.145 -0.015,-12.217 0.34,0 1.03,0.008 1.376,0.008 -0.016,4.073 -0.01,8.145 -0.024,12.218 0.572,-0.03 1.722,-0.083 2.3,-0.113 0.046,-7.905 -0.195,-15.825 0.128,-23.73 0.256,0.33 0.782,0.983 1.038,1.305 0.278,3.143 -0.015,6.308 0.135,9.458 l 1.623,-0.87 c 0.21,-3.608 0.158,-7.238 0.03,-10.845 -0.06,-1.507 -1.458,-2.64 -2.93,-2.602 -3.015,-0.007 -6.555,-0.817 -8.976,1.493 z"
         id="path284"
         inkscape:connector-curvature="0"
         style="opacity:0.95999995" />
    </g>
    <g
       id="g290"
       style="fill:#1c1c1c">
      <path
         d="m 34.572,181.973 c 1.232,-3.6 5.69,-2.82 8.674,-2.88 2.488,-0.292 5.427,1.125 5.547,3.908 0.188,3.946 0.376,7.95 -0.166,11.866 a 23.91,23.91 0 0 1 -2.773,1.387 540.63,540.63 0 0 0 -0.015,11.58 c -0.28,0.36 -0.836,1.088 -1.114,1.448 h -6.554 c -1.76,-4.222 -0.564,-8.947 -0.864,-13.387 l -2.12,-0.33 -0.985,-1.282 c 0.173,-4.087 -0.48,-8.272 0.37,-12.307 m 1.224,0.315 c -0.323,3.863 -0.308,7.793 -0.023,11.655 0.37,0.225 1.098,0.675 1.466,0.9 0.18,-3.24 -0.173,-6.495 0.165,-9.72 l 1.105,-0.982 c 0.308,7.89 0.053,15.803 0.15,23.7 0.564,0.016 1.707,0.046 2.278,0.06 -0.022,-4.08 -0.022,-8.16 -0.015,-12.24 0.338,0 1.015,0.008 1.353,0.008 -0.015,4.08 -0.008,8.168 -0.023,12.248 0.587,-0.03 1.744,-0.09 2.323,-0.113 -0.038,-6.51 0.008,-13.012 -0.045,-19.515 0.084,-1.447 -0.33,-3.247 1.19,-4.11 0.217,3.548 0.006,7.103 0.156,10.658 a 174.13,174.13 0 0 1 1.63,-0.885 c 0.167,-3.81 0.257,-7.657 -0.066,-11.46 -0.73,-2.482 -3.728,-2.047 -5.735,-2.114 -2.007,0.127 -5,-0.48 -5.908,1.912 z M 57.13,181.95 c 1.23,-3.57 5.674,-2.797 8.635,-2.857 2.503,-0.292 5.457,1.11 5.577,3.9 0.18,3.93 0.384,7.935 -0.173,11.843 -0.895,0.577 -1.865,1.027 -2.82,1.492 0.023,3.833 0.016,7.665 0.038,11.498 -0.278,0.367 -0.834,1.095 -1.105,1.455 h -6.56 c -1.745,-4.117 -0.573,-8.744 -0.873,-13.08 -1.06,-0.51 -2.113,-1.027 -3.157,-1.567 0.263,-4.215 -0.43,-8.527 0.436,-12.682 m 1.216,0.346 a 75.317,75.317 0 0 0 -0.022,11.647 l 1.465,0.9 c 0.18,-3.24 -0.166,-6.495 0.157,-9.712 0.278,-0.247 0.842,-0.727 1.12,-0.974 0.286,7.89 0.045,15.787 0.143,23.685 0.564,0.016 1.706,0.046 2.278,0.06 -0.023,-4.08 -0.023,-8.16 -0.015,-12.24 0.338,0.008 1.014,0.008 1.353,0.008 -0.015,4.08 -0.008,8.168 -0.023,12.248 l 2.323,-0.12 c 0.052,-7.913 -0.188,-15.833 0.127,-23.745 0.256,0.323 0.775,0.968 1.03,1.29 0.27,3.158 -0.022,6.33 0.135,9.488 0.406,-0.217 1.226,-0.652 1.64,-0.87 0.164,-3.81 0.255,-7.665 -0.06,-11.46 -0.73,-2.482 -3.73,-2.062 -5.72,-2.122 -2.023,0.127 -5.022,-0.488 -5.932,1.92 z m 22.078,-0.34 c 1.226,-3.57 5.653,-2.805 8.614,-2.865 2.518,-0.3 5.502,1.11 5.608,3.93 0.18,3.93 0.398,7.935 -0.196,11.843 -0.887,0.562 -1.856,0.997 -2.796,1.462 0.023,3.833 0.015,7.665 0.038,11.498 -0.28,0.36 -0.835,1.087 -1.105,1.455 h -6.562 c -1.76,-4.222 -0.564,-8.947 -0.865,-13.387 -0.526,-0.082 -1.578,-0.24 -2.112,-0.322 -0.248,-0.322 -0.744,-0.967 -0.992,-1.297 0.173,-4.095 -0.49,-8.28 0.368,-12.315 m 1.226,0.36 a 75.026,75.026 0 0 0 -0.023,11.625 c 0.368,0.225 1.097,0.675 1.466,0.9 0.18,-3.232 -0.165,-6.487 0.16,-9.705 0.27,-0.247 0.818,-0.757 1.096,-1.012 0.338,7.897 0.053,15.81 0.165,23.715 0.565,0.016 1.708,0.046 2.28,0.06 -0.024,-4.072 -0.024,-8.152 -0.016,-12.232 h 1.353 c -0.015,4.088 -0.008,8.168 -0.023,12.248 0.58,-0.03 1.744,-0.09 2.323,-0.113 0.052,-7.92 -0.196,-15.84 0.128,-23.745 0.255,0.323 0.774,0.968 1.03,1.298 0.27,3.15 -0.03,6.315 0.135,9.472 0.406,-0.217 1.225,-0.652 1.63,-0.87 0.174,-3.802 0.256,-7.65 -0.052,-11.452 -0.72,-2.49 -3.736,-2.063 -5.743,-2.13 -2.014,0.127 -5.036,-0.488 -5.907,1.942 z m 21.324,-0.347 c 1.218,-3.585 5.652,-2.82 8.62,-2.88 2.504,-0.292 5.48,1.095 5.6,3.9 0.182,3.93 0.377,7.928 -0.164,11.835 -0.895,0.593 -1.88,1.02 -2.826,1.508 0.022,3.832 0.015,7.665 0.037,11.497 -0.28,0.36 -0.835,1.088 -1.106,1.448 h -6.562 c -1.744,-4.124 -0.57,-8.744 -0.872,-13.087 a 102.415,102.415 0 0 1 -3.157,-1.552 c 0.256,-4.207 -0.42,-8.512 0.43,-12.667 m 1.224,0.33 a 75.218,75.218 0 0 0 -0.022,11.64 c 0.368,0.225 1.097,0.675 1.465,0.893 0.18,-3.225 -0.165,-6.48 0.158,-9.698 0.278,-0.247 0.827,-0.757 1.105,-1.005 0.323,7.89 0.053,15.803 0.158,23.708 0.565,0.016 1.707,0.046 2.278,0.06 -0.022,-4.08 -0.022,-8.16 -0.015,-12.24 0.34,0 1.015,0.008 1.353,0.008 -0.015,4.08 -0.007,8.168 -0.022,12.248 l 2.322,-0.12 c -0.037,-6.518 0.015,-13.035 -0.045,-19.553 0.076,-1.432 -0.314,-3.21 1.19,-4.065 0.217,3.548 0.014,7.103 0.157,10.65 l 1.623,-0.87 c 0.173,-3.817 0.263,-7.672 -0.06,-11.475 -0.744,-2.475 -3.736,-2.04 -5.742,-2.107 -2.007,0.127 -5.006,-0.48 -5.9,1.927 z"
         id="path288"
         inkscape:connector-curvature="0" />
    </g>
  </g>
  <g
     id="g443"
     transform="matrix(0.75,0,0,0.75,131.87097,128.20163)">
    <g
       id="#2a2a2aca">
      <path
         id="path302"
         d="m 0.09,0 h 15.75 c 2.6,4.19 0.74,9.5 1.26,14.17 C 11.52,15.3 5.48,15.76 0,13.95 V 0.21 L 0.01,0.18 0.09,0 m 1.13,1.98 c 0.16,3.67 0.16,7.35 0.06,11.03 4.87,0.49 9.79,0.43 14.66,0.02 C 15.84,9.33 15.85,5.62 15.99,1.91 11.1,1.32 6.1,1.21 1.22,1.98 Z"
         inkscape:connector-curvature="0"
         style="opacity:0.79000005;fill:#2a2a2a" />
    </g>
    <g
       id="#272727bb">
      <path
         id="path305"
         d="m 19.82,0 h 14.52 c 0.42,0.51 1.25,1.54 1.67,2.06 C 36,5.69 36,9.33 36.01,12.96 35.33,13.64 34.65,14.32 33.97,15 29.99,14.95 26,15.18 22.02,14.98 20.74,14.96 18.72,14.54 18.82,12.86 18.48,8.61 17.74,3.93 19.82,0 M 20,1.81 c 0.02,3.75 0.01,7.5 0,11.25 4.72,0.32 9.45,0.2 14.18,0.13 C 34.21,9.45 34.57,5.69 34.08,1.97 29.5,1 24.66,1.67 20,1.81 Z"
         inkscape:connector-curvature="0"
         style="opacity:0.73000004;fill:#272727" />
    </g>
    <g
       id="#262626b6">
      <path
         id="path308"
         d="M 38.62,0 H 53.76 C 53.82,0.01 53.94,0.02 54,0.03 V 14.25 C 49.15,15.7 44.04,14.8 39.06,15.02 38.36,14.36 37.66,13.7 36.96,13.04 37,9.33 37.02,5.61 36.9,1.9 37.33,1.43 38.19,0.48 38.62,0 m 0.3,1.98 c -0.45,3.72 -0.13,7.47 -0.05,11.2 4.73,0.05 9.45,0.18 14.17,-0.15 C 53.15,9.3 53.13,5.58 53.05,1.85 48.37,1.64 43.53,1.06 38.92,1.98 Z"
         inkscape:connector-curvature="0"
         style="opacity:0.70999995;fill:#262626" />
    </g>
    <g
       id="#0c0c0c38">
      <path
         id="path311"
         d="M 53.76,0 H 54 V 0.03 C 53.94,0.02 53.82,0.01 53.76,0 Z"
         inkscape:connector-curvature="0"
         style="opacity:0.22000002;fill:#0c0c0c" />
    </g>
    <g
       id="#85b368dc">
      <path
         id="path314"
         d="M 7.8,7.69 C 9.02,6.26 10.39,4.81 12.41,4.71 11.33,6.89 9.59,8.6 7.94,10.35 6.67,9.39 5.06,8.5 4.85,6.75 5.97,6.29 6.96,6.6 7.8,7.69 Z"
         inkscape:connector-curvature="0"
         style="opacity:0.86000001;fill:#85b368" />
    </g>
    <g
       id="#87b56adf">
      <path
         id="path317"
         d="m 26.4,7.69 c 1.18,-1.06 2.09,-2.78 3.86,-2.86 0.5,2.33 -2.43,4.3 -4.32,5.23 -1.37,-0.92 -2.4,-2.34 -2.15,-4.07 0.88,0.55 1.75,1.12 2.61,1.7 z"
         inkscape:connector-curvature="0"
         style="opacity:0.87000002;fill:#87b56a" />
    </g>
    <g
       id="#7ea962d0">
      <path
         id="path320"
         d="m 44.98,7.61 c 1.16,-1.45 2.61,-2.64 4.47,-3.06 -0.7,2.33 -2.32,4.31 -4.44,5.5 -1.3,-0.15 -4.5,-3.14 -1.96,-3.67 0.48,0.31 1.45,0.92 1.93,1.23 z"
         inkscape:connector-curvature="0"
         style="opacity:0.81999966;fill:#7ea962" />
    </g>
    <g
       id="#2c2c2cd4">
      <path
         id="path323"
         d="m 0,17.41 c 3.43,-1.67 7.31,-1.28 11,-1.28 1.92,0.15 4.1,-0.16 5.73,1.09 0.67,4.18 0.6,8.48 0.15,12.68 -0.26,0.23 -0.79,0.7 -1.05,0.93 C 10.61,30.94 5,31.93 0,30.06 V 17.41 m 1.3,0.74 c 0.13,3.5 -0.22,7.02 0.1,10.52 0.24,0.26 0.71,0.78 0.95,1.04 4.53,0.12 9.26,0.74 13.68,-0.56 C 15.85,25.46 15.85,21.77 15.9,18.08 11.03,17.93 6.16,17.84 1.3,18.15 Z"
         inkscape:connector-curvature="0"
         style="opacity:0.82999998;fill:#2c2c2c" />
    </g>
    <g
       id="#292929c6">
      <path
         id="path326"
         d="m 20.39,16.42 c 3.85,-0.6 7.8,-0.24 11.68,-0.27 1.63,-0.21 2.78,1.03 4,1.88 -0.38,4.32 0.73,8.87 -1.01,12.99 -5,-0.12 -10.02,0.24 -15.02,-0.11 -2.4,-1.67 -1.13,-5.36 -1.5,-7.89 0.36,-2.16 -0.79,-5.65 1.85,-6.6 M 20,18 c 0.02,3.8 0.03,7.6 -0.04,11.41 4.63,0.82 9.35,0.29 14.03,0.42 0.53,-3.92 0.4,-7.89 0.14,-11.83 -4.71,0.01 -9.42,0 -14.13,0 z"
         inkscape:connector-curvature="0"
         style="opacity:0.77999998;fill:#292929" />
    </g>
    <g
       id="#282828c0">
      <path
         id="path329"
         d="M 36.9,17.78 C 42,14.82 48.45,15.95 54,16.88 V 30.81 C 48.62,31.23 43.23,30.92 37.84,31.11 36.46,26.79 37.1,22.22 36.9,17.78 M 38.88,18 c -0.25,3.93 -0.35,7.89 0.12,11.81 4.47,-0.21 9.05,0.54 13.46,-0.33 1.47,-3.52 0.44,-7.7 0.61,-11.47 C 48.34,18 43.61,18.02 38.88,18 Z"
         inkscape:connector-curvature="0"
         style="opacity:0.75;fill:#282828" />
    </g>
    <g
       id="#7ca661cd">
      <path
         id="path332"
         d="M 7.63,24.07 C 9,23.13 10.59,19.63 12.15,21.91 11.03,23.85 9.24,25.27 7.66,26.83 6.44,25.57 5.18,24.3 4.5,22.64 5.28,23 6.85,23.72 7.63,24.07 Z"
         inkscape:connector-curvature="0"
         style="opacity:0.8;fill:#7ca661" />
    </g>
    <g
       id="#19191978">
      <path
         id="path335"
         d="m 23.89,22.87 c 2.27,-0.13 4.54,-0.3 6.8,-0.55 -0.13,0.5 -0.39,1.49 -0.52,1.99 -2.11,0.39 -4.24,0.64 -6.37,0.79 0.02,-0.56 0.07,-1.68 0.09,-2.23 z"
         inkscape:connector-curvature="0"
         style="opacity:0.47000002;fill:#191919" />
    </g>
    <g
       id="#1919197a">
      <path
         id="path338"
         d="m 42.32,22.99 c 2.4,-0.52 4.87,-0.45 7.3,-0.55 0.05,0.59 0.16,1.77 0.21,2.35 -2.68,0.11 -5.36,0.09 -8.03,-0.05 0.13,-0.44 0.39,-1.31 0.52,-1.75 z"
         inkscape:connector-curvature="0"
         style="opacity:0.47999998;fill:#191919" />
    </g>
    <g
       id="#303030e2">
      <path
         id="path341"
         d="m 0,33.68 c 5.15,-1.49 10.63,-1.08 15.89,-0.61 1.72,1.01 1.02,3.25 1.28,4.88 -0.09,2.88 0.34,5.9 -0.59,8.66 -1.55,1.29 -3.76,0.85 -5.61,1.04 C 7.31,47.49 3.24,48.35 0,46.19 V 33.68 m 2.14,0.46 c -1.81,3.31 -0.65,7.62 -0.68,11.3 4.52,1.33 9.67,0.26 14.42,0.46 -0.11,-3.61 0.27,-7.23 -0.06,-10.83 -0.24,-0.23 -0.72,-0.7 -0.96,-0.94 -4.23,-0.31 -8.5,-0.28 -12.72,0.01 z"
         inkscape:connector-curvature="0"
         style="opacity:0.88999999;fill:#303030" />
    </g>
    <g
       id="#292929c2">
      <path
         id="path344"
         d="m 19.06,33.03 c 4.91,-0.35 9.85,-0.51 14.77,-0.13 1.56,-0.13 2.22,1.8 2.16,3.07 0.07,3.25 0.19,6.52 -0.12,9.76 -1.59,2.83 -5.21,1.75 -7.84,2 -2.92,-0.29 -6.28,0.68 -8.89,-0.99 -1.12,-4.46 -0.58,-9.19 -0.08,-13.71 m 1.04,1.11 c -0.1,3.94 -0.11,7.88 -0.07,11.82 4.68,0.03 9.37,0.03 14.05,0.04 0.33,-3.99 0.4,-8 -0.08,-11.97 -4.63,0 -9.27,-0.06 -13.9,0.11 z"
         inkscape:connector-curvature="0"
         style="opacity:0.76000001;fill:#292929" />
    </g>
    <g
       id="#282828be">
      <path
         id="path347"
         d="m 38.27,33.09 c 5.2,-0.84 10.5,-0.27 15.73,-0.08 v 14.06 c -5.61,0.68 -11.88,1.84 -17.12,-0.87 0.24,-3.94 -0.2,-7.93 0.31,-11.85 0.27,-0.32 0.81,-0.95 1.08,-1.26 m 0.74,0.94 C 38.55,38 38.6,42.01 38.94,45.99 43.63,46 48.33,45.99 53.03,45.92 53.24,42 53.22,38.06 52.85,34.15 48.24,33.97 43.62,34.03 39.01,34.03 Z"
         inkscape:connector-curvature="0"
         style="opacity:0.75;fill:#282828" />
    </g>
    <g
       id="#2121219b">
      <path
         id="path350"
         d="m 6.07,39.47 c 0.86,-0.33 3.12,0.05 2.47,1.37 -0.93,1.4 -4.72,-0.29 -2.47,-1.37 z"
         inkscape:connector-curvature="0"
         style="opacity:0.61000001;fill:#212121" />
    </g>
    <g
       id="#18181873">
      <path
         id="path353"
         d="m 9.98,39.35 c 1.66,-0.57 2.22,-0.04 1.68,1.58 -1.65,0.55 -2.21,0.03 -1.68,-1.58 z"
         inkscape:connector-curvature="0"
         style="opacity:0.45;fill:#181818" />
    </g>
    <g
       id="#1b1b1b80">
      <path
         id="path356"
         d="m 22.93,41.53 c 0.43,-3.46 7,-3.19 7.87,-0.21 -2.62,0.11 -5.24,0.19 -7.87,0.21 z"
         inkscape:connector-curvature="0"
         style="opacity:0.5;fill:#1b1b1b" />
    </g>
    <g
       id="#17171771">
      <path
         id="path359"
         d="m 41.89,39.21 c 2.31,-0.08 4.61,-0.1 6.92,-0.11 0.09,0.59 0.26,1.77 0.34,2.36 -2.35,-0.19 -4.71,-0.06 -7.03,0.42 -0.05,-0.66 -0.17,-2 -0.23,-2.67 z"
         inkscape:connector-curvature="0"
         style="opacity:0.43999999;fill:#171717" />
      <path
         id="path361"
         d="m 48.95,58.42 c -2.37,-0.27 -7.58,1.05 -6.51,-2.84 2.44,0.24 5.63,-0.06 6.51,2.84 z"
         inkscape:connector-curvature="0"
         style="opacity:0.43999999;fill:#171717" />
    </g>
    <g
       id="#282828bf">
      <path
         id="path364"
         d="M 0,49.99 C 5.47,48.15 11.57,48.73 17.17,49.74 17.09,54.16 17.11,58.58 17.06,63 H 0 V 49.99 m 1.24,0.99 c 0.15,3.65 0.16,7.29 0.09,10.94 4.82,0.66 9.68,0.53 14.52,0.24 -0.02,-3.74 0.02,-7.48 0.13,-11.22 C 11.1,50.35 6.11,50.26 1.24,50.98 Z"
         inkscape:connector-curvature="0"
         style="opacity:0.75;fill:#282828" />
    </g>
    <g
       id="#232323a4">
      <path
         id="path367"
         d="m 18.61,52.06 c -0.06,-1.46 0.79,-3.16 2.48,-3.01 4.5,-0.12 9.1,-0.46 13.55,0.3 2.91,3.7 0.76,9.23 1.34,13.65 H 18.87 C 18.48,59.37 18.23,55.7 18.61,52.06 M 20,50.89 c 0.02,3.74 0.02,7.48 0.01,11.22 4.67,0.37 9.37,0.38 14.04,0.02 0.16,-3.8 0.2,-7.62 0.01,-11.43 C 29.37,50.65 24.68,50.49 20,50.89 Z"
         inkscape:connector-curvature="0"
         style="opacity:0.63999999;fill:#232323" />
    </g>
    <g
       id="#212121a0">
      <path
         id="path370"
         d="m 37.12,51.02 c 0.12,-1.85 2.44,-2.01 3.84,-2.04 4.34,0 8.8,-0.5 13.04,0.66 V 63 H 37.15 C 36.91,59.01 36.74,55 37.12,51.02 m 1.83,-0.3 c -0.16,3.81 -0.14,7.62 0.02,11.43 4.67,0.29 9.35,0.27 14.02,-0.01 0.03,-3.74 0.04,-7.48 0.02,-11.21 -4.67,-0.43 -9.37,-0.26 -14.06,-0.21 z"
         inkscape:connector-curvature="0"
         style="opacity:0.62999998;fill:#212121" />
    </g>
    <g
       id="#1a1a1a7d">
      <path
         id="path373"
         d="M 5.16,57.8 C 3.66,54.7 8.35,55.65 9.99,55.62 9.92,58.56 7.25,58.08 5.16,57.8 Z"
         inkscape:connector-curvature="0"
         style="opacity:0.49000005;fill:#1a1a1a" />
    </g>
    <g
       id="#242424ae">
      <path
         id="path376"
         d="m 10.54,56.56 c -0.11,-0.11 -0.11,-0.11 0,0 z"
         inkscape:connector-curvature="0"
         style="opacity:0.68000034;fill:#242424" />
    </g>
    <g
       id="#1c1c1c87">
      <path
         id="path379"
         d="m 22.58,56.04 c 2.69,0.08 5.37,0.11 8.05,-0.02 0.04,2.66 -2.77,2.31 -4.65,2.24 -1.61,0.13 -2.93,-0.64 -3.4,-2.22 z"
         inkscape:connector-curvature="0"
         style="opacity:0.52999998;fill:#1c1c1c" />
    </g>
  </g>
  <g
     id="g338"
     transform="matrix(0.75091884,0,0,0.75,133.26341,181.68067)">
    <g
       id="#1e1e1ee2">
      <path
         id="path264"
         d="m 37.97,0 h 3.19 c 1.9,1.23 3.13,3.14 4.29,5.03 C 44.17,7.23 42.83,9.89 40,10.25 37.41,9.92 34.8,7.83 34.89,5.03 34.91,2.91 36.78,1.53 37.97,0 m 0.46,2.31 c -1.89,0.65 -1.66,2.88 -1.36,4.45 1.22,1.9 4.38,1.94 5.5,-0.08 C 44.32,4.23 41,0.66 38.43,2.31 Z"
         inkscape:connector-curvature="0"
         style="opacity:0.88999999;fill:#1e1e1e" />
      <path
         id="path266-1"
         d="m 68.33,0 h 2.83 c 1.91,1.23 3.13,3.15 4.3,5.03 -1.2,2.44 -3.08,4.39 -5.45,5.72 C 68.14,9.46 65.34,8.57 64.99,5.98 64.32,3.38 66.54,1.45 68.33,0 m 0.13,2.28 C 65.12,3.73 67.28,9.6 70.92,8.04 75.04,6.78 72.24,0.16 68.46,2.28 Z"
         inkscape:connector-curvature="0"
         style="opacity:0.88999999;fill:#1e1e1e" />
      <path
         id="path268-0"
         d="m 97.35,0 h 2.78 c 3.05,1.49 5.28,5.68 2.3,8.39 C 99.94,11.7 94.62,9.73 93.98,5.95 93.33,3.35 95.55,1.44 97.35,0 m -1.5,3.08 c 0.14,1.85 -0.3,4.67 2.22,5.02 2.9,0.98 5.45,-3.22 2.98,-5.19 -1.32,-1.83 -3.61,-0.45 -5.2,0.17 z"
         inkscape:connector-curvature="0"
         style="opacity:0.88999999;fill:#1e1e1e" />
      <path
         id="path270"
         d="m 127.34,0 h 2.82 c 1.89,1.23 3.13,3.12 4.3,5 -1.28,2.21 -2.61,4.88 -5.46,5.25 -2.59,-0.33 -5.21,-2.43 -5.11,-5.24 -0.04,-2.25 1.93,-3.69 3.45,-5.01 m -1.5,3.09 c 0.14,1.84 -0.28,4.72 2.27,5.01 2.88,0.96 5.39,-3.23 2.94,-5.19 -1.32,-1.83 -3.62,-0.47 -5.21,0.18 z"
         inkscape:connector-curvature="0"
         style="opacity:0.88999999;fill:#1e1e1e" />
      <path
         id="path272"
         d="m 157.34,0 h 2.82 c 1.87,1.24 3.12,3.11 4.3,4.96 -1.17,2.49 -3.06,4.47 -5.47,5.79 -1.84,-1.28 -4.56,-2.15 -4.98,-4.67 -0.75,-2.64 1.5,-4.62 3.33,-6.08 m -1.5,3.11 c 0.14,1.84 -0.27,4.73 2.29,4.99 2.87,0.95 5.36,-3.22 2.94,-5.18 -1.32,-1.85 -3.65,-0.48 -5.23,0.19 z"
         inkscape:connector-curvature="0"
         style="opacity:0.88999999;fill:#1e1e1e" />
      <path
         id="path274-9"
         d="m 187.33,0 h 2.82 c 1.88,1.24 3.13,3.1 4.31,4.97 -1.28,2.23 -2.61,4.93 -5.49,5.28 -2.6,-0.35 -5.22,-2.47 -5.08,-5.3 -0.01,-2.22 1.95,-3.63 3.44,-4.95 m -1.49,3.09 c 0.16,1.82 -0.3,4.58 2.14,5 2.88,1.05 5.53,-3.08 3.13,-5.12 -1.3,-1.91 -3.67,-0.54 -5.27,0.12 z"
         inkscape:connector-curvature="0"
         style="opacity:0.88999999;fill:#1e1e1e" />
      <path
         id="path276"
         d="m 216.34,0 h 2.8 c 1.83,1.3 4.13,3.11 3.69,5.65 -0.36,2.58 -2.95,3.71 -4.8,5.08 -1.88,-1.26 -4.67,-2.15 -5.04,-4.73 -0.69,-2.62 1.55,-4.55 3.35,-6 m -1.51,3.11 c 0.14,1.84 -0.26,4.69 2.27,5 2.86,0.95 5.38,-3.18 2.99,-5.15 -1.29,-1.91 -3.67,-0.52 -5.26,0.15 z"
         inkscape:connector-curvature="0"
         style="opacity:0.88999999;fill:#1e1e1e" />
      <path
         id="path278-6"
         d="m 246.33,0 h 2.82 c 1.9,1.23 3.14,3.13 4.31,5.01 -1.28,2.21 -2.63,4.88 -5.48,5.25 -2.6,-0.36 -5.25,-2.48 -5.08,-5.32 -0.02,-2.21 1.95,-3.62 3.43,-4.94 m -1.48,3.08 c 0.28,1.63 -0.44,3.95 1.48,4.79 2.69,1.61 6.21,-2.04 4.09,-4.53 -1.22,-2.22 -3.83,-1.11 -5.57,-0.26 z"
         inkscape:connector-curvature="0"
         style="opacity:0.88999999;fill:#1e1e1e" />
      <path
         id="path280-2"
         d="m 276.34,0 h 2.81 c 1.88,1.23 3.13,3.11 4.31,4.96 -1.17,2.48 -3.04,4.46 -5.44,5.79 -1.87,-1.28 -4.65,-2.16 -5.03,-4.73 -0.7,-2.62 1.55,-4.57 3.35,-6.02 m -1.5,3.11 c 0.15,1.83 -0.28,4.6 2.19,4.99 2.91,1 5.49,-3.18 3.03,-5.18 -1.31,-1.85 -3.65,-0.47 -5.22,0.19 z"
         inkscape:connector-curvature="0"
         style="opacity:0.88999999;fill:#1e1e1e" />
    </g>
    <g
       id="#9bd079ff">
      <path
         id="path283"
         d="m 7.2,0.95 c 3.53,-2.7 8.8,1.59 7.27,5.58 -0.95,3.84 -6.96,4.5 -8.76,1.02 C 4.19,5.38 5.21,2.42 7.2,0.95 Z"
         inkscape:connector-curvature="0"
         style="opacity:1;fill:#9bd079" />
      <path
         id="path285"
         d="m 2.74,11.78 c 3.13,-1.64 6.87,-0.92 10.27,-0.99 3.08,-0.24 6.37,2.05 6.46,5.29 0.1,4.94 0.23,9.9 -0.06,14.84 -0.04,1.98 -2.67,1.69 -3.99,2.42 -0.24,5.57 0.64,11.26 -0.43,16.76 -2.8,1.82 -6.26,-0.24 -9.25,0.9 H 5.2 C 4.92,50 4.62,49.01 4.28,48.02 4.24,43.1 4.27,38.17 4.27,33.25 2.83,32.86 1.37,32.52 0,31.92 V 31.3 C 0.93,27.96 -0.09,24.44 0.12,21.02 0.18,17.86 -0.44,13.71 2.74,11.78 Z"
         inkscape:connector-curvature="0"
         style="opacity:1;fill:#9bd079" />
    </g>
    <g
       id="#222221ff">
      <path
         id="path288-8"
         d="m 30.49,14.59 c 1.91,-5.14 8.34,-3.67 12.6,-3.78 3.14,-0.32 6.27,2.11 6.41,5.32 0.16,4.93 0.27,9.89 -0.06,14.81 -0.21,1.89 -2.73,1.78 -3.96,2.6 -0.6,5.77 1.4,12.06 -1.2,17.46 H 35.04 C 33.26,45.35 34.49,39.36 34.12,33.55 32.68,32.85 31.26,32.13 29.86,31.38 30.47,25.8 29.35,20.1 30.49,14.59 m 1.41,0.2 c 0.04,5.43 -0.02,10.86 0.03,16.28 0.56,0.04 1.66,0.11 2.22,0.15 0.11,-4.24 -0.25,-8.49 0.08,-12.71 0.41,-0.18 1.24,-0.52 1.65,-0.7 0.14,10.43 0,20.85 0.08,31.28 0.76,0.02 2.28,0.05 3.04,0.07 -0.06,-5.44 -0.04,-10.89 -0.03,-16.33 0.45,0.01 1.36,0.04 1.81,0.05 -0.05,5.43 0,10.86 -0.06,16.29 C 41.51,49.13 43.07,49.04 43.85,49 43.78,38.61 43.78,28.22 43.84,17.83 l 1.4,0.62 c 0.79,4.17 -0.25,8.48 0.42,12.68 0.55,0 1.67,0 2.22,0.01 -0.15,-5.05 0.16,-10.1 -0.11,-15.13 -0.12,-2.4 -2.62,-3.72 -4.82,-3.48 -3.73,0.15 -8.37,-1.09 -11.05,2.26 z"
         inkscape:connector-curvature="0"
         style="opacity:1;fill:#222221" />
      <path
         id="path290"
         d="m 60.52,14.53 c 1.93,-5.09 8.29,-3.55 12.52,-3.71 3.14,-0.35 6.29,2.05 6.46,5.26 0.15,4.94 0.28,9.91 -0.07,14.84 -0.15,1.93 -2.71,1.77 -3.95,2.62 -0.45,5.8 1.12,11.9 -1.05,17.46 H 65.6 c -0.8,-1.19 -1.61,-2.46 -1.48,-3.96 -0.11,-4.5 0.12,-8.99 0,-13.49 -1.44,-0.7 -2.86,-1.42 -4.26,-2.18 0.61,-5.59 -0.53,-11.32 0.66,-16.84 m 1.41,2.42 c -0.01,4.63 -0.18,9.27 0.12,13.89 0.52,0.15 1.56,0.45 2.08,0.6 0.15,-4.31 -0.23,-8.63 0.1,-12.93 0.41,-0.18 1.24,-0.52 1.65,-0.7 0.14,10.43 0.01,20.85 0.08,31.28 0.76,0.02 2.28,0.05 3.04,0.07 -0.05,-5.54 -0.06,-11.09 -0.01,-16.63 0.42,0.16 1.26,0.49 1.68,0.65 0.26,5.33 0.01,10.67 0.05,16 0.79,-0.05 2.35,-0.15 3.14,-0.2 -0.13,-9 0.01,-18.01 -0.09,-27.01 0.24,-1.5 -0.66,-3.92 1.61,-4.31 0.17,4.5 0.19,9 -0.05,13.49 0.64,-0.04 1.92,-0.11 2.57,-0.14 -0.14,-4.67 0.05,-9.34 -0.05,-14.01 0.14,-1.85 -0.96,-3.91 -2.89,-4.27 -3.29,-0.38 -6.65,-0.36 -9.95,-0.04 -2.03,0.17 -3.33,2.34 -3.08,4.26 z"
         inkscape:connector-curvature="0"
         style="opacity:1;fill:#222221" />
      <path
         id="path292"
         d="m 89.49,14.6 c 1.89,-5.12 8.26,-3.69 12.52,-3.79 3.18,-0.34 6.38,2.09 6.5,5.36 0.15,4.9 0.25,9.84 -0.07,14.73 -0.17,1.92 -2.72,1.82 -3.96,2.64 -0.45,5.8 1.12,11.9 -1.05,17.46 H 94.6 c -0.8,-1.19 -1.61,-2.47 -1.48,-3.98 -0.11,-4.49 0.12,-8.98 0,-13.48 -1.43,-0.68 -2.85,-1.38 -4.25,-2.13 0.58,-5.58 -0.5,-11.29 0.62,-16.81 M 91,15.95 c -0.26,5.04 -0.01,10.08 -0.07,15.12 0.55,0.04 1.66,0.12 2.22,0.15 0.12,-4.24 -0.28,-8.51 0.12,-12.75 0.4,-0.16 1.21,-0.5 1.61,-0.67 0.14,10.43 0.01,20.86 0.08,31.29 0.76,0.01 2.28,0.05 3.04,0.07 -0.05,-5.54 -0.05,-11.08 -0.02,-16.62 0.43,0.16 1.28,0.48 1.7,0.64 0.24,5.33 0,10.67 0.05,16 0.78,-0.05 2.34,-0.14 3.12,-0.18 -0.11,-9 0.03,-17.99 -0.09,-26.98 0.08,-1.62 -0.36,-3.67 1.58,-4.44 0.46,4.5 -0.26,9.06 0.36,13.54 0.54,0.01 1.64,0.02 2.19,0.02 -0.16,-5.05 0.15,-10.11 -0.12,-15.15 -0.12,-1.89 -1.89,-3.47 -3.78,-3.39 -3.3,-0.16 -6.65,-0.34 -9.91,0.27 -1.05,0.68 -2.18,1.7 -2.08,3.08 z"
         inkscape:connector-curvature="0"
         style="opacity:1;fill:#222221" />
      <path
         id="path294"
         d="m 119.51,14.56 c 1.91,-5.09 8.29,-3.64 12.54,-3.75 3.16,-0.33 6.32,2.09 6.45,5.33 0.15,4.91 0.28,9.85 -0.06,14.75 -0.12,1.95 -2.71,1.8 -3.96,2.64 -0.47,5.8 1.14,11.92 -1.06,17.47 h -8.82 c -0.8,-1.19 -1.62,-2.47 -1.48,-3.98 -0.11,-4.49 0.12,-8.98 0,-13.47 -1.44,-0.7 -2.86,-1.41 -4.26,-2.16 0.61,-5.59 -0.52,-11.31 0.65,-16.83 m 1.39,0.24 c 0.05,5.42 -0.02,10.84 0.03,16.27 0.56,0.04 1.66,0.12 2.22,0.16 0.12,-4.25 -0.28,-8.51 0.11,-12.75 0.4,-0.17 1.21,-0.51 1.62,-0.68 0.14,10.43 0.01,20.86 0.08,31.28 0.76,0.02 2.28,0.06 3.04,0.08 -0.06,-5.44 -0.03,-10.88 -0.03,-16.32 0.45,0.01 1.36,0.03 1.81,0.04 -0.05,5.43 0.01,10.85 -0.06,16.27 0.78,-0.03 2.35,-0.11 3.14,-0.15 -0.12,-8.98 0.01,-17.97 -0.09,-26.95 0.25,-1.52 -0.69,-3.99 1.61,-4.36 0.38,4.47 -0.29,8.99 0.32,13.44 0.54,0 1.64,0.01 2.19,0.01 -0.16,-5.04 0.15,-10.1 -0.12,-15.13 -0.12,-2.38 -2.58,-3.72 -4.76,-3.48 -3.75,0.15 -8.41,-1.1 -11.11,2.27 z"
         inkscape:connector-curvature="0"
         style="opacity:1;fill:#222221" />
      <path
         id="path296"
         d="m 149.47,14.64 c 1.86,-5.19 8.3,-3.67 12.57,-3.82 3.16,-0.36 6.33,2.09 6.46,5.32 0.16,4.91 0.28,9.86 -0.06,14.76 -0.15,1.95 -2.72,1.8 -3.96,2.64 -0.45,5.79 1.12,11.9 -1.05,17.46 h -8.82 c -0.8,-1.19 -1.63,-2.45 -1.49,-3.96 -0.11,-4.49 0.12,-8.99 0,-13.49 -1.44,-0.7 -2.86,-1.42 -4.26,-2.17 0.59,-5.56 -0.48,-11.24 0.61,-16.74 m 1.53,1.32 c -0.26,5.03 -0.01,10.07 -0.07,15.11 0.56,0.04 1.66,0.12 2.22,0.16 0.11,-4.24 -0.24,-8.49 0.07,-12.72 0.42,-0.17 1.25,-0.51 1.67,-0.68 0.13,10.42 0,20.84 0.07,31.26 0.76,0.02 2.28,0.06 3.03,0.07 -0.03,-5.55 -0.05,-11.11 0.01,-16.67 0.42,0.19 1.25,0.57 1.67,0.76 0.27,5.3 0.01,10.6 0.05,15.9 0.78,-0.03 2.35,-0.1 3.13,-0.14 -0.06,-10.4 -0.08,-20.81 0.01,-31.22 l 1.38,0.68 c 0.84,4.17 -0.34,8.47 0.47,12.64 0.54,0.01 1.63,0.04 2.17,0.05 -0.1,-4.74 0.07,-9.49 -0.03,-14.23 0.12,-1.82 -0.99,-3.84 -2.89,-4.2 -3.3,-0.38 -6.65,-0.36 -9.95,-0.04 -1.57,0.13 -3.04,1.67 -3.01,3.27 z"
         inkscape:connector-curvature="0"
         style="opacity:1;fill:#222221" />
      <path
         id="path298"
         d="m 179.07,16.93 c -0.04,-2.81 1.98,-5.79 4.95,-5.96 3.29,-0.34 6.63,-0.35 9.92,0.02 2.79,0.37 4.77,3.25 4.62,5.98 0.03,4.66 0.24,9.33 -0.12,13.97 -0.2,1.89 -2.73,1.78 -3.97,2.6 -0.43,5.8 1.11,11.9 -1.03,17.46 h -8.84 c -0.79,-1.18 -1.61,-2.44 -1.48,-3.94 -0.11,-4.5 0.12,-9.01 0,-13.51 -1.44,-0.7 -2.85,-1.41 -4.26,-2.16 0.37,-4.82 -0.02,-9.64 0.21,-14.46 m 1.86,0.05 c -0.01,4.61 -0.19,9.24 0.12,13.85 0.52,0.16 1.56,0.47 2.07,0.63 0.17,-4.33 -0.24,-8.67 0.13,-12.98 0.41,-0.16 1.23,-0.49 1.64,-0.65 0.12,10.42 0,20.84 0.07,31.26 0.76,0.01 2.28,0.05 3.03,0.07 -0.04,-5.54 -0.05,-11.09 0,-16.63 0.42,0.16 1.27,0.5 1.69,0.67 0.24,5.31 0.01,10.63 0.04,15.95 0.78,-0.03 2.35,-0.1 3.13,-0.14 -0.03,-10.45 -0.15,-20.91 0.06,-31.36 0.37,0.28 1.12,0.83 1.49,1.11 0.32,4.12 0.03,8.26 -0.06,12.38 0.64,-0.03 1.92,-0.1 2.56,-0.13 -0.14,-4.68 0.05,-9.37 -0.05,-14.05 0.13,-1.83 -0.98,-3.85 -2.88,-4.23 -3.31,-0.39 -6.68,-0.36 -10,-0.03 -2.03,0.19 -3.3,2.36 -3.04,4.28 z"
         inkscape:connector-curvature="0"
         style="opacity:1;fill:#222221" />
      <path
         id="path300"
         d="m 208.16,16.05 c 0.22,-2.48 2.2,-4.88 4.78,-5.07 3.01,-0.33 6.05,-0.26 9.07,-0.1 3.2,-0.08 5.75,3.02 5.55,6.11 0.04,4.64 0.24,9.3 -0.12,13.93 -0.16,1.92 -2.73,1.78 -3.96,2.62 -0.46,5.8 1.15,11.92 -1.06,17.46 h -8.82 c -0.79,-1.18 -1.61,-2.44 -1.48,-3.94 -0.11,-4.5 0.12,-9 -0.01,-13.5 -1.44,-0.7 -2.86,-1.44 -4.26,-2.21 0.44,-5.09 -0.12,-10.21 0.31,-15.3 m 1.77,0.91 c -0.01,4.62 -0.19,9.26 0.12,13.88 0.52,0.15 1.56,0.46 2.08,0.61 0.16,-4.31 -0.25,-8.64 0.12,-12.95 0.4,-0.18 1.21,-0.54 1.62,-0.72 0.17,10.44 0.01,20.87 0.09,31.31 0.76,0.02 2.28,0.06 3.03,0.08 -0.04,-5.56 -0.04,-11.11 0,-16.66 0.42,0.18 1.26,0.56 1.68,0.74 0.28,5.3 0.01,10.61 0.05,15.91 0.78,-0.04 2.35,-0.13 3.14,-0.17 -0.07,-10.42 -0.12,-20.85 0.02,-31.27 0.38,0.26 1.15,0.77 1.53,1.03 0.52,4.09 -0.5,8.28 0.33,12.33 0.54,0.03 1.61,0.08 2.14,0.11 -0.1,-4.77 0.07,-9.54 -0.04,-14.31 0.12,-1.81 -1.01,-3.8 -2.88,-4.15 -3.28,-0.39 -6.62,-0.36 -9.91,-0.04 -2.06,0.14 -3.39,2.33 -3.12,4.27 z"
         inkscape:connector-curvature="0"
         style="opacity:1;fill:#222221" />
      <path
         id="path302-9"
         d="m 238.51,14.56 c 1.91,-5.08 8.28,-3.64 12.53,-3.75 3.16,-0.33 6.34,2.1 6.47,5.34 0.15,4.91 0.26,9.84 -0.07,14.74 -0.15,1.93 -2.72,1.83 -3.96,2.65 -0.44,5.8 1.11,11.9 -1.04,17.46 h -8.84 c -0.8,-1.18 -1.61,-2.45 -1.48,-3.95 -0.11,-4.5 0.12,-9 -0.01,-13.5 -1.44,-0.69 -2.86,-1.43 -4.26,-2.19 0.62,-5.58 -0.51,-11.29 0.66,-16.8 m 1.42,2.42 c -0.01,4.62 -0.18,9.25 0.12,13.86 0.52,0.15 1.56,0.45 2.08,0.6 0.15,-4.32 -0.25,-8.66 0.12,-12.96 0.41,-0.16 1.23,-0.48 1.65,-0.64 0.1,10.42 0,20.83 0.06,31.25 0.76,0.01 2.28,0.05 3.04,0.07 -0.05,-5.54 -0.05,-11.07 -0.02,-16.61 0.43,0.15 1.28,0.47 1.7,0.62 0.24,5.33 0.01,10.67 0.04,16 0.78,-0.04 2.35,-0.12 3.13,-0.16 -0.05,-10.43 -0.12,-20.86 0.03,-31.28 0.38,0.25 1.15,0.75 1.54,1 0.27,4.11 0.05,8.24 -0.11,12.35 0.65,-0.02 1.94,-0.04 2.59,-0.05 -0.14,-4.68 0.05,-9.35 -0.05,-14.02 0.14,-1.85 -0.97,-3.93 -2.91,-4.28 -3.3,-0.38 -6.66,-0.36 -9.96,-0.04 -2.04,0.2 -3.31,2.37 -3.05,4.29 z"
         inkscape:connector-curvature="0"
         style="opacity:1;fill:#222221" />
      <path
         id="path304"
         d="m 268.5,14.56 c 1.92,-5.13 8.32,-3.57 12.58,-3.74 3.09,-0.33 6.22,2.01 6.4,5.19 0.23,4.69 0.2,9.4 0.05,14.09 0.33,2.43 -2.48,2.67 -4.05,3.44 -0.45,5.8 1.11,11.9 -1.04,17.46 h -8.84 c -0.81,-1.19 -1.62,-2.47 -1.48,-3.98 -0.11,-4.49 0.12,-8.98 -0.01,-13.46 -1.44,-0.71 -2.86,-1.45 -4.26,-2.22 0.62,-5.57 -0.51,-11.28 0.65,-16.78 m 1.41,0.22 c 0.03,5.43 -0.03,10.86 0.02,16.29 0.55,0.04 1.66,0.12 2.22,0.16 0.11,-4.25 -0.25,-8.52 0.09,-12.76 0.42,-0.15 1.25,-0.45 1.67,-0.6 0.08,10.4 -0.01,20.81 0.05,31.21 0.76,0.02 2.28,0.06 3.04,0.08 -0.06,-5.44 -0.04,-10.89 -0.03,-16.33 0.46,0.01 1.36,0.04 1.81,0.06 -0.05,5.43 0.01,10.85 -0.06,16.28 0.78,-0.05 2.35,-0.13 3.13,-0.17 -0.07,-10.4 -0.07,-20.79 -0.01,-31.19 l 1.39,0.66 c 0.79,4.09 -0.15,8.3 0.32,12.43 0.59,0.07 1.76,0.22 2.34,0.29 -0.16,-5.08 0.15,-10.17 -0.12,-15.25 -0.17,-2.34 -2.6,-3.63 -4.75,-3.41 -3.75,0.14 -8.4,-1.09 -11.11,2.25 z"
         inkscape:connector-curvature="0"
         style="opacity:1;fill:#222221" />
    </g>
  </g>
</svg>
