<?xml version="1.0" encoding="UTF-8" ?>
<!DOCTYPE svg PUBLIC "-//W3C//DTD SVG 1.1//EN" "http://www.w3.org/Graphics/SVG/1.1/DTD/svg11.dtd">
<svg width="47pt" height="47pt" viewBox="0 0 47 47" version="1.1" xmlns="http://www.w3.org/2000/svg">
<g id="#8bbb6de4">
<path fill="#8bbb6d" opacity="0.89" d=" M 17.23 1.17 C 29.73 -2.70 44.01 6.25 46.26 19.06 C 49.27 31.87 38.96 45.48 25.97 46.60 C 13.63 48.28 1.30 38.27 0.29 25.89 C -1.09 14.93 6.69 4.03 17.23 1.17 M 17.41 3.61 C 9.95 5.68 4.07 12.32 2.87 19.98 C 1.22 28.73 5.89 38.27 13.96 42.11 C 22.01 46.27 32.62 44.47 38.75 37.77 C 45.58 30.68 46.16 18.69 40.12 10.93 C 35.03 4.09 25.54 1.07 17.41 3.61 Z" />
<path fill="#8bbb6d" opacity="0.89" d=" M 14.69 8.72 C 20.88 4.51 29.88 5.58 35.01 11.00 C 38.36 14.23 39.69 18.86 40.13 23.37 C 37.82 23.48 35.50 23.47 33.20 23.29 C 33.88 21.41 35.72 21.05 37.43 20.65 C 36.76 18.27 35.96 15.88 34.55 13.82 C 33.04 14.46 31.55 15.53 29.87 14.67 C 30.75 13.57 31.63 12.48 32.52 11.39 C 30.12 10.14 27.60 9.16 25.04 8.32 C 24.74 9.82 24.76 11.65 23.15 12.43 C 22.42 11.18 21.97 9.82 21.77 8.37 C 19.24 9.14 16.79 10.15 14.46 11.39 C 15.31 12.79 18.00 14.49 15.34 15.59 C 14.60 15.07 13.12 14.03 12.38 13.51 C 11.15 15.78 10.14 18.15 9.40 20.62 C 11.12 21.05 12.99 21.39 13.74 23.26 C 11.42 23.47 9.09 23.48 6.76 23.40 C 7.12 17.66 9.65 11.82 14.69 8.72 Z" />
<path fill="#8bbb6d" opacity="0.89" d=" M 25.43 18.25 C 26.81 17.63 28.19 17.03 29.59 16.47 C 29.07 17.88 28.38 19.21 27.61 20.49 C 28.78 24.96 22.93 29.28 19.57 25.46 C 16.37 22.50 19.11 18.03 22.74 17.20 C 23.63 17.55 24.53 17.90 25.43 18.25 M 20.63 23.83 C 21.23 24.02 22.45 24.39 23.06 24.57 C 23.61 24.31 24.70 23.79 25.24 23.53 C 24.98 22.16 24.95 19.73 22.93 19.96 C 20.70 19.52 20.52 22.31 20.63 23.83 Z" />
<path fill="#8bbb6d" opacity="0.89" d=" M 19.94 29.41 C 22.77 29.28 27.13 28.48 28.09 32.10 C 28.79 35.51 24.92 36.53 22.32 36.57 C 21.99 38.34 23.15 42.15 20.10 40.72 C 19.74 36.96 19.96 33.18 19.94 29.41 M 21.66 31.67 C 21.79 34.82 25.41 34.45 26.53 32.17 C 24.91 31.94 23.29 31.76 21.66 31.67 Z" />
</g>
</svg>
