<?xml version="1.0" encoding="UTF-8" ?>
<!DOCTYPE svg PUBLIC "-//W3C//DTD SVG 1.1//EN" "http://www.w3.org/Graphics/SVG/1.1/DTD/svg11.dtd">
<svg width="74pt" height="74pt" viewBox="0 0 74 74" version="1.1" xmlns="http://www.w3.org/2000/svg">
<g id="#313131f6">
<path fill="#313131" opacity="0.96" d=" M 7.12 0.00 L 9.19 0.00 C 9.21 1.57 9.23 3.14 9.24 4.71 C 12.31 4.72 15.39 4.72 18.47 4.72 C 18.51 3.15 18.55 1.57 18.60 0.00 L 20.56 0.00 C 20.78 1.57 20.93 3.15 21.09 4.73 C 24.09 4.73 27.09 4.73 30.09 4.73 C 30.12 3.15 30.15 1.58 30.19 0.00 L 32.16 0.00 C 32.39 1.57 32.54 3.15 32.70 4.73 C 35.73 4.72 38.76 4.72 41.79 4.70 C 41.78 3.13 41.76 1.57 41.75 0.00 L 43.66 0.00 C 43.89 1.58 44.07 3.16 44.24 4.75 C 47.23 4.73 50.21 4.72 53.19 4.73 C 53.23 3.15 53.28 1.58 53.33 0.00 L 55.23 0.00 C 55.41 1.57 55.56 3.14 55.69 4.72 C 58.72 4.72 61.75 4.72 64.78 4.71 C 64.78 3.14 64.78 1.57 64.79 0.00 L 66.77 0.00 C 66.98 1.56 67.12 3.13 67.26 4.70 C 68.91 4.72 70.56 4.74 72.22 4.76 C 72.66 5.38 73.55 6.63 74.00 7.25 L 74.00 62.95 C 72.57 64.05 70.92 64.91 69.05 64.77 C 48.36 64.81 27.67 64.70 6.98 64.82 C 4.46 64.94 1.81 64.68 0.00 62.71 L 0.00 6.91 C 1.75 4.86 4.48 4.71 6.96 4.38 C 7.01 2.92 7.06 1.46 7.12 0.00 M 2.40 7.18 C 2.38 10.20 2.39 13.21 2.35 16.22 C 25.50 16.24 48.64 16.25 71.78 16.21 C 71.74 13.20 71.74 10.18 71.71 7.17 C 70.24 7.11 68.77 7.06 67.30 7.00 C 67.10 8.81 66.90 10.61 66.62 12.40 C 64.68 11.25 64.70 9.04 64.53 7.04 C 61.54 7.06 58.54 7.05 55.55 7.05 C 55.52 8.59 55.49 10.14 55.44 11.68 C 54.67 11.54 53.90 11.39 53.13 11.23 C 53.19 9.84 53.24 8.45 53.30 7.05 C 50.20 7.05 47.10 7.05 44.00 7.08 C 44.03 8.46 44.05 9.85 44.08 11.24 C 43.53 11.39 42.44 11.70 41.90 11.85 C 41.82 10.25 41.75 8.65 41.68 7.05 C 38.70 7.06 35.71 7.06 32.73 7.03 C 32.33 8.59 33.05 13.05 30.22 11.21 C 30.11 9.83 30.04 8.44 30.00 7.05 C 27.01 7.05 24.03 7.05 21.04 7.05 C 20.70 8.73 21.42 10.89 19.82 12.09 C 18.21 10.87 18.55 8.79 18.27 7.03 C 15.31 7.06 12.35 7.06 9.38 7.05 C 9.23 8.84 9.07 10.62 8.82 12.40 C 6.85 11.25 6.95 8.98 6.73 6.99 C 5.29 7.05 3.84 7.11 2.40 7.18 M 2.31 18.57 C 2.55 33.20 2.26 47.83 2.46 62.46 C 25.56 62.44 48.67 62.62 71.76 62.36 C 71.73 47.76 71.65 33.16 71.81 18.55 C 48.64 18.51 25.48 18.47 2.31 18.57 Z" />
<path fill="#313131" opacity="0.96" d=" M 12.07 53.02 C 13.85 53.94 15.31 55.35 16.69 56.77 C 15.20 57.88 13.35 57.89 11.59 58.08 C 11.59 56.38 11.56 54.66 12.07 53.02 Z" />
<path fill="#313131" opacity="0.96" d=" M 23.13 57.95 C 23.17 56.00 23.04 53.85 24.74 52.50 C 24.98 53.17 25.47 54.51 25.71 55.19 C 26.44 55.51 27.89 56.16 28.62 56.48 C 27.14 57.94 25.05 57.84 23.13 57.95 Z" />
<path fill="#313131" opacity="0.96" d=" M 34.67 58.02 C 34.68 56.07 34.62 53.97 36.13 52.48 C 36.42 53.10 37.00 54.32 37.29 54.93 C 38.10 55.71 39.50 56.15 39.61 57.46 C 37.97 57.75 36.32 57.89 34.67 58.02 Z" />
<path fill="#313131" opacity="0.96" d=" M 46.39 57.62 C 45.72 55.72 46.35 53.85 47.79 52.51 C 48.07 53.19 48.62 54.54 48.90 55.22 C 49.60 55.52 50.99 56.13 51.69 56.44 C 50.33 57.99 48.28 58.19 46.39 57.62 Z" />
<path fill="#313131" opacity="0.96" d=" M 57.67 57.98 C 57.85 56.18 58.15 54.38 58.66 52.64 C 60.09 54.17 61.85 55.52 62.73 57.48 C 61.06 57.76 59.36 57.89 57.67 57.98 Z" />
<path fill="#313131" opacity="0.96" d=" M 4.78 67.29 C 24.50 66.87 44.25 67.29 63.98 67.08 C 65.99 67.18 68.21 66.81 70.00 67.99 C 69.11 70.06 66.70 69.31 64.99 69.55 C 44.95 69.32 24.88 69.85 4.85 69.29 C 4.83 68.79 4.80 67.79 4.78 67.29 Z" />
<path fill="#313131" opacity="0.96" d=" M 9.25 71.83 C 26.51 71.61 43.79 71.78 61.06 71.72 C 63.04 71.46 64.66 72.38 65.77 74.00 L 9.51 74.00 C 9.44 73.46 9.31 72.37 9.25 71.83 Z" />
</g>
<g id="#9bd079fd">
<path fill="#9bd079" opacity="1.00" d=" M 17.82 22.98 C 18.39 23.56 18.95 24.15 19.51 24.75 C 17.34 26.87 15.20 29.02 13.07 31.17 C 11.67 29.75 10.27 28.35 8.85 26.95 C 9.36 26.54 10.39 25.72 10.91 25.30 C 11.44 25.92 12.50 27.14 13.03 27.75 C 14.61 26.15 16.21 24.55 17.82 22.98 Z" />
<path fill="#9bd079" opacity="1.00" d=" M 29.24 23.13 C 29.78 23.45 30.87 24.09 31.42 24.41 C 29.29 26.72 27.03 28.90 24.86 31.17 C 23.44 29.76 21.96 28.41 20.65 26.89 C 21.98 24.43 23.57 26.41 24.99 27.58 C 26.39 26.08 27.81 24.60 29.24 23.13 Z" />
<path fill="#9bd079" opacity="1.00" d=" M 36.30 27.67 C 37.91 26.10 39.50 24.51 41.07 22.91 C 41.50 23.39 42.36 24.35 42.78 24.84 C 40.59 26.92 38.45 29.06 36.25 31.13 C 34.92 29.75 33.58 28.37 32.24 27.00 C 32.68 26.55 33.58 25.65 34.03 25.20 C 34.60 25.82 35.73 27.05 36.30 27.67 Z" />
<path fill="#9bd079" opacity="1.00" d=" M 59.50 27.61 C 61.05 26.08 62.58 24.54 64.09 22.98 C 64.57 23.42 65.53 24.32 66.01 24.76 C 63.78 26.87 61.63 29.05 59.38 31.14 C 58.00 29.27 54.09 27.49 56.85 25.06 C 57.51 25.70 58.84 26.97 59.50 27.61 Z" />
<path fill="#9bd079" opacity="1.00" d=" M 48.11 27.51 C 49.65 25.94 51.18 24.33 52.93 22.97 C 53.25 23.42 53.90 24.30 54.23 24.74 C 52.26 27.00 50.01 29.00 47.95 31.17 C 46.46 29.69 44.97 28.22 43.51 26.72 C 45.18 24.99 46.71 26.20 48.11 27.51 Z" />
<path fill="#9bd079" opacity="1.00" d=" M 17.89 36.77 C 18.41 37.38 18.93 38.00 19.45 38.63 C 17.33 40.78 15.19 42.92 13.06 45.07 C 11.69 43.66 10.30 42.26 8.88 40.88 C 9.39 40.45 10.40 39.58 10.90 39.15 C 11.43 39.77 12.49 41.02 13.01 41.64 C 14.63 40.01 16.26 38.39 17.89 36.77 Z" />
<path fill="#9bd079" opacity="1.00" d=" M 24.95 41.43 C 26.84 40.15 28.89 35.24 31.20 38.23 C 29.42 40.80 26.96 42.78 24.85 45.06 C 23.43 43.67 21.98 42.31 20.67 40.82 C 22.05 38.43 23.56 40.13 24.95 41.43 Z" />
<path fill="#9bd079" opacity="1.00" d=" M 36.31 41.56 C 37.93 39.96 39.53 38.34 41.12 36.72 C 41.52 37.23 42.32 38.23 42.72 38.74 C 40.56 40.82 38.43 42.94 36.26 45.01 C 34.93 43.65 33.60 42.30 32.27 40.96 C 32.70 40.48 33.56 39.51 33.99 39.03 C 34.57 39.66 35.73 40.93 36.31 41.56 Z" />
<path fill="#9bd079" opacity="1.00" d=" M 47.93 41.58 C 49.60 39.84 51.31 38.14 53.10 36.52 C 53.32 37.06 53.76 38.15 53.98 38.69 C 52.24 41.05 49.94 42.92 47.95 45.07 C 46.55 43.66 45.14 42.26 43.73 40.86 C 44.21 40.46 45.18 39.64 45.66 39.23 C 46.23 39.82 47.36 40.99 47.93 41.58 Z" />
<path fill="#9bd079" opacity="1.00" d=" M 59.48 41.54 C 61.05 39.98 62.60 38.40 64.14 36.80 C 64.74 37.42 65.35 38.03 65.95 38.65 C 63.77 40.74 61.65 42.87 59.50 44.97 C 58.11 43.65 56.74 42.32 55.36 40.98 C 55.79 40.51 56.65 39.55 57.08 39.08 C 57.68 39.69 58.88 40.92 59.48 41.54 Z" />
</g>
</svg>
