<?xml version="1.0" encoding="UTF-8" ?>
<!DOCTYPE svg PUBLIC "-//W3C//DTD SVG 1.1//EN" "http://www.w3.org/Graphics/SVG/1.1/DTD/svg11.dtd">
<svg width="69pt" height="69pt" viewBox="0 0 69 69" version="1.1" xmlns="http://www.w3.org/2000/svg">
<g id="#323032fa">
<path fill="#323032" opacity="0.98" d=" M 25.42 1.60 C 42.70 -3.78 62.41 7.50 67.35 24.71 C 72.32 39.81 64.69 57.36 50.75 64.69 C 38.54 71.60 22.19 69.60 11.91 60.09 C 2.98 52.29 -1.54 39.62 0.99 27.96 C 3.39 15.54 13.24 4.96 25.42 1.60 M 19.65 6.61 C 10.04 11.91 3.67 22.08 2.97 33.02 C 4.51 33.15 6.06 33.20 7.58 33.49 C 9.84 36.28 4.66 35.87 2.99 36.16 C 3.67 48.50 11.86 59.80 23.41 64.21 C 26.57 65.15 29.81 65.78 33.08 66.21 C 33.28 64.50 32.93 62.59 33.94 61.07 C 34.47 61.21 35.54 61.48 36.08 61.62 C 35.98 63.12 35.90 64.62 35.83 66.12 C 42.45 65.75 49.00 63.52 54.20 59.34 C 61.35 53.79 65.66 45.01 66.11 36.01 C 64.56 35.84 62.89 36.14 61.43 35.48 C 59.58 32.65 64.59 33.36 66.20 33.07 C 65.59 26.51 63.48 19.98 59.24 14.84 C 53.70 7.72 44.98 3.57 36.05 3.00 C 35.64 4.65 36.75 8.43 33.96 8.08 C 32.84 6.62 33.31 4.65 33.08 2.95 C 28.43 3.43 23.87 4.61 19.65 6.61 Z" />
<path fill="#323032" opacity="0.98" d=" M 37.10 30.07 C 39.71 27.51 42.13 24.73 45.09 22.57 C 45.47 22.94 46.23 23.69 46.61 24.06 C 44.43 26.96 41.68 29.36 39.15 31.94 C 39.18 33.69 39.18 35.44 39.17 37.19 C 42.94 41.24 47.19 44.83 50.72 49.10 C 50.32 49.51 49.53 50.33 49.14 50.75 C 44.84 47.20 41.21 42.94 37.17 39.12 C 35.46 39.30 33.75 39.47 32.04 39.62 C 31.08 38.16 30.02 36.72 29.42 35.07 C 29.46 33.20 30.78 31.73 31.82 30.29 C 33.57 30.13 35.34 30.09 37.10 30.07 M 32.98 32.12 L 33.40 32.85 C 30.90 32.79 31.51 37.17 33.77 36.70 L 33.55 37.36 C 34.91 36.60 36.25 35.80 37.56 34.97 C 36.47 33.38 34.90 32.36 32.98 32.12 Z" />
</g>
<g id="#9cd17aff">
<path fill="#9cd17a" opacity="1.00" d=" M 19.65 6.61 C 23.87 4.61 28.43 3.43 33.08 2.95 C 33.31 4.65 32.84 6.62 33.96 8.08 C 36.75 8.43 35.64 4.65 36.05 3.00 C 44.98 3.57 53.70 7.72 59.24 14.84 C 63.48 19.98 65.59 26.51 66.20 33.07 C 64.59 33.36 59.58 32.65 61.43 35.48 C 62.89 36.14 64.56 35.84 66.11 36.01 C 65.66 45.01 61.35 53.79 54.20 59.34 C 49.00 63.52 42.45 65.75 35.83 66.12 C 35.90 64.62 35.98 63.12 36.08 61.62 C 35.54 61.48 34.47 61.21 33.94 61.07 C 32.93 62.59 33.28 64.50 33.08 66.21 C 29.81 65.78 26.57 65.15 23.41 64.21 C 26.29 56.02 29.20 47.83 32.04 39.62 C 33.75 39.47 35.46 39.30 37.17 39.12 C 41.21 42.94 44.84 47.20 49.14 50.75 C 49.53 50.33 50.32 49.51 50.72 49.10 C 47.19 44.83 42.94 41.24 39.17 37.19 C 39.18 35.44 39.18 33.69 39.15 31.94 C 41.68 29.36 44.43 26.96 46.61 24.06 C 46.23 23.69 45.47 22.94 45.09 22.57 C 42.13 24.73 39.71 27.51 37.10 30.07 C 35.34 30.09 33.57 30.13 31.82 30.29 C 27.70 22.43 23.80 14.45 19.65 6.61 Z" />
<path fill="#9cd17a" opacity="1.00" d=" M 32.98 32.12 C 34.90 32.36 36.47 33.38 37.56 34.97 C 36.25 35.80 34.91 36.60 33.55 37.36 L 33.77 36.70 C 34.39 35.46 34.24 33.95 33.40 32.85 L 32.98 32.12 Z" />
</g>
</svg>
