<?xml version="1.0" encoding="UTF-8" ?>
<!DOCTYPE svg PUBLIC "-//W3C//DTD SVG 1.1//EN" "http://www.w3.org/Graphics/SVG/1.1/DTD/svg11.dtd">
<svg width="69pt" height="80pt" viewBox="0 0 69 80" version="1.1" xmlns="http://www.w3.org/2000/svg">
<g id="#272727c3">
<path fill="#272727" opacity="0.76" d=" M 3.15 0.00 L 20.35 0.00 L 20.10 0.38 C 19.84 0.79 19.31 1.60 19.04 2.01 C 13.44 2.00 7.84 1.99 2.24 2.04 L 0.77 2.07 C 1.54 1.35 2.34 0.66 3.15 0.00 Z" />
<path fill="#272727" opacity="0.76" d=" M 26.14 0.00 L 42.74 0.00 C 43.58 0.61 44.41 1.24 45.23 1.88 L 43.71 1.96 C 37.45 2.44 31.06 1.20 24.91 2.69 L 24.71 1.32 C 25.07 0.99 25.78 0.33 26.14 0.00 Z" />
<path fill="#272727" opacity="0.76" d=" M 48.89 0.00 L 65.88 0.00 C 66.76 0.65 67.61 1.34 68.44 2.05 L 66.88 2.02 C 61.34 2.01 55.79 1.99 50.25 2.01 C 49.95 1.56 49.34 0.66 49.04 0.21 L 48.89 0.00 Z" />
<path fill="#272727" opacity="0.76" d=" M 7.97 69.13 C 8.40 69.40 9.27 69.96 9.70 70.24 C 11.13 69.82 12.60 69.62 14.08 69.51 C 14.04 70.91 14.77 72.01 15.69 72.99 C 14.24 71.99 12.83 70.94 11.46 69.84 C 11.52 70.66 11.63 72.29 11.69 73.11 C 10.57 71.10 8.29 73.44 7.05 71.82 C 7.19 70.87 7.49 69.97 7.97 69.13 Z" />
</g>
<g id="#323232fb">
<path fill="#323232" opacity="1.00" d=" M 19.04 2.01 C 19.31 1.60 19.84 0.79 20.10 0.38 C 20.57 0.85 21.51 1.78 21.98 2.25 C 21.94 6.80 22.18 11.35 21.94 15.90 C 21.94 17.37 20.33 18.52 18.94 18.50 C 13.99 18.68 9.01 18.66 4.05 18.52 C 2.14 18.64 0.47 16.93 0.58 15.03 C 0.44 10.71 0.32 6.37 0.77 2.07 L 2.24 2.04 C 2.16 6.68 1.90 11.33 2.19 15.97 C 2.42 16.19 2.88 16.63 3.10 16.85 C 8.78 17.26 14.48 16.84 20.17 17.03 C 20.80 12.07 20.93 6.99 20.18 2.04 L 19.04 2.01 Z" />
</g>
<g id="#2f2f2fea">
<path fill="#2f2f2f" opacity="0.92" d=" M 47.02 3.94 C 46.82 2.34 48.20 1.34 49.04 0.21 C 49.34 0.66 49.95 1.56 50.25 2.01 L 48.97 2.07 C 48.55 7.01 48.67 11.99 48.94 16.94 C 54.85 16.83 60.81 17.39 66.69 16.67 C 67.35 11.82 66.87 6.90 66.88 2.02 L 68.44 2.05 C 68.87 6.37 68.74 10.73 68.63 15.06 C 68.73 16.62 67.54 18.12 66.03 18.44 C 61.69 18.87 57.31 18.55 52.96 18.65 C 50.94 18.60 48.27 18.84 47.27 16.61 C 46.66 12.43 47.01 8.15 47.02 3.94 Z" />
</g>
<g id="#323232fc">
<path fill="#323232" opacity="1.00" d=" M 23.92 15.00 C 24.12 10.47 23.08 5.65 24.71 1.32 L 24.91 2.69 C 25.81 7.44 24.79 12.30 25.74 17.04 C 31.50 16.84 37.28 17.25 43.03 16.86 C 43.20 16.61 43.56 16.10 43.73 15.85 C 44.08 11.23 43.77 6.59 43.71 1.96 L 45.23 1.88 C 45.10 6.86 45.63 11.86 45.00 16.81 C 44.71 17.12 44.11 17.74 43.81 18.05 C 39.00 19.20 33.90 18.34 28.97 18.60 C 26.69 18.89 23.43 17.88 23.92 15.00 Z" />
</g>
<g id="#86b369db">
<path fill="#86b369" opacity="0.86" d=" M 10.33 9.94 C 11.81 8.81 13.65 4.42 15.62 7.12 C 14.28 9.50 12.01 11.16 10.15 13.11 C 9.25 12.24 8.38 11.36 7.52 10.46 C 6.18 9.95 7.10 7.66 8.40 8.26 C 9.08 8.78 9.72 9.34 10.33 9.94 Z" />
</g>
<g id="#89b86be1">
<path fill="#89b86b" opacity="0.88" d=" M 37.27 6.03 C 37.74 6.31 38.67 6.89 39.14 7.18 C 37.37 9.29 35.40 11.22 33.29 12.99 C 32.11 11.85 30.93 10.72 29.75 9.58 C 30.29 9.02 30.82 8.46 31.36 7.90 C 31.86 8.40 32.85 9.40 33.35 9.90 C 34.67 8.61 35.97 7.32 37.27 6.03 Z" />
</g>
<g id="#8bba6de4">
<path fill="#8bba6d" opacity="0.89" d=" M 60.71 5.83 C 61.24 6.43 61.76 7.03 62.28 7.64 C 60.37 9.36 58.52 11.15 56.76 13.03 C 55.53 11.90 54.28 10.80 53.15 9.58 C 53.57 9.15 54.42 8.29 54.84 7.86 C 55.30 8.38 56.22 9.42 56.68 9.94 C 58.01 8.55 59.35 7.18 60.71 5.83 Z" />
</g>
<g id="#2e2e2ee7">
<path fill="#2e2e2e" opacity="0.91" d=" M 2.22 21.04 C 6.77 20.35 11.41 20.89 15.99 20.70 C 18.00 20.80 20.61 20.30 21.82 22.37 C 22.29 27.24 21.86 32.16 22.01 37.05 C 21.33 37.70 20.64 38.35 19.96 39.01 C 14.31 38.91 8.65 39.17 3.01 38.92 C -0.65 37.57 0.72 32.97 0.46 29.99 C 0.82 27.04 -0.60 23.11 2.22 21.04 M 2.00 23.12 C 2.25 27.74 2.06 32.37 2.15 36.99 C 7.83 37.62 13.58 37.35 19.29 37.24 C 21.15 36.77 20.40 34.45 20.58 33.09 C 20.30 29.46 21.22 25.64 19.86 22.16 C 15.23 22.18 10.61 22.13 5.99 22.13 C 4.56 22.00 3.21 22.39 2.00 23.12 Z" />
<path fill="#2e2e2e" opacity="0.91" d=" M 1.27 42.35 C 3.82 39.86 7.79 41.41 10.96 40.99 C 14.66 41.40 19.28 39.68 22.06 42.93 C 21.85 47.83 22.24 52.74 21.88 57.63 C 20.66 59.76 18.03 59.38 15.97 59.44 C 11.69 59.31 7.39 59.64 3.12 59.26 C -0.23 58.58 0.54 54.47 0.46 51.95 C 0.77 48.78 -0.29 45.27 1.27 42.35 M 2.30 43.28 C 1.79 47.83 2.40 52.44 1.99 57.01 C 7.68 58.96 13.98 57.33 19.92 57.89 C 21.14 53.02 20.61 47.80 20.23 42.83 C 14.28 42.95 8.10 42.02 2.30 43.28 Z" />
<path fill="#2e2e2e" opacity="0.91" d=" M 26.10 41.16 C 31.70 40.86 37.34 40.90 42.94 41.13 C 46.82 42.73 44.79 47.78 45.30 51.00 C 45.07 53.90 46.50 59.30 42.06 59.36 C 36.49 59.25 30.79 59.94 25.30 58.96 C 24.99 58.64 24.37 58.01 24.07 57.69 C 23.70 53.12 23.86 48.52 23.95 43.94 C 23.78 42.60 25.08 41.70 26.10 41.16 M 25.37 44.21 C 25.29 48.33 25.26 52.46 25.38 56.58 C 25.62 56.87 26.10 57.46 26.34 57.75 C 29.91 58.06 33.49 57.78 37.07 57.89 C 39.38 57.83 41.86 58.26 43.95 57.01 C 43.67 52.36 43.90 47.70 43.77 43.04 C 38.87 42.44 33.91 42.79 28.99 42.70 C 27.81 42.86 25.36 42.39 25.37 44.21 Z" />
</g>
<g id="#2e2e2ee6">
<path fill="#2e2e2e" opacity="0.90" d=" M 24.00 23.02 C 24.06 21.59 25.66 20.70 26.99 20.79 C 31.97 20.65 36.98 20.67 41.97 20.78 C 43.43 20.63 45.14 21.54 45.16 23.16 C 45.42 27.41 45.32 31.68 45.22 35.93 C 45.40 37.67 43.68 39.07 42.04 38.99 C 36.65 39.10 31.25 38.90 25.86 39.07 C 25.20 38.10 23.77 37.42 23.95 36.06 C 23.83 31.72 23.77 27.36 24.00 23.02 M 26.37 22.32 C 26.12 22.61 25.62 23.19 25.38 23.48 C 25.32 27.81 25.17 32.17 25.47 36.49 C 26.47 37.91 28.58 37.08 30.05 37.36 C 34.64 37.22 39.25 37.65 43.81 36.97 C 43.85 32.33 43.70 27.69 43.94 23.05 C 41.81 21.76 39.28 22.19 36.91 22.14 C 33.40 22.25 29.87 21.92 26.37 22.32 Z" />
</g>
<g id="#2d2d2ddf">
<path fill="#2d2d2d" opacity="0.87" d=" M 46.92 22.89 C 47.90 22.14 48.60 20.64 50.03 20.80 C 55.04 20.62 60.07 20.68 65.08 20.76 C 66.94 20.50 68.71 22.19 68.68 24.03 C 68.73 27.99 68.81 31.96 68.64 35.92 C 68.60 37.70 66.79 39.23 65.02 39.00 C 59.72 39.07 54.41 38.96 49.11 39.01 C 48.40 38.28 47.70 37.56 46.99 36.84 C 46.97 32.19 47.06 27.53 46.92 22.89 M 49.09 22.24 C 48.53 27.20 48.75 32.20 48.93 37.17 C 54.95 37.31 61.00 37.61 66.99 36.98 C 67.00 32.29 66.93 27.60 67.04 22.91 C 61.26 21.27 55.05 22.51 49.09 22.24 Z" />
</g>
<g id="#92c372ee">
<path fill="#92c372" opacity="0.93" d=" M 10.50 29.96 C 11.88 28.84 13.03 27.49 14.23 26.19 C 14.57 26.64 15.24 27.53 15.58 27.97 C 13.83 29.78 12.24 31.98 10.02 33.17 C 8.92 32.00 6.38 30.97 7.02 29.05 C 8.40 27.67 9.22 30.20 10.50 29.96 Z" />
</g>
<g id="#2d2d2de2">
<path fill="#2d2d2d" opacity="0.89" d=" M 54.13 28.07 C 54.58 28.62 55.47 29.72 55.92 30.27 C 56.33 29.83 57.16 28.93 57.58 28.48 C 59.56 29.03 62.05 27.75 62.95 30.38 C 59.63 30.88 56.26 30.30 52.93 30.78 C 53.34 29.88 53.74 28.97 54.13 28.07 Z" />
<path fill="#2d2d2d" opacity="0.89" d=" M 30.56 28.46 C 31.72 28.85 32.87 29.26 34.02 29.69 C 34.47 29.35 35.36 28.66 35.80 28.31 L 36.08 30.06 C 36.74 29.56 38.06 28.56 38.72 28.06 C 38.11 32.08 33.40 30.12 30.65 30.91 C 30.63 30.29 30.58 29.07 30.56 28.46 Z" />
<path fill="#2d2d2d" opacity="0.89" d=" M 0.55 65.03 C 0.53 63.57 1.47 61.85 3.06 61.71 C 7.68 61.23 12.35 61.55 17.00 61.49 C 18.85 61.34 20.54 62.11 22.09 63.02 C 21.95 68.01 22.00 73.01 22.04 78.00 C 21.25 78.68 20.45 79.35 19.64 80.00 L 3.05 80.00 C 2.15 79.11 0.73 78.41 0.63 76.99 C 0.28 73.02 0.38 69.01 0.55 65.03 M 3.24 63.13 C 2.97 63.41 2.43 63.96 2.15 64.24 C 2.02 68.78 2.16 73.31 2.17 77.85 C 8.14 78.36 14.14 78.02 20.13 78.08 C 20.92 73.61 20.51 69.02 20.47 64.51 C 20.28 64.18 19.91 63.50 19.73 63.17 C 14.25 62.89 8.73 62.93 3.24 63.13 Z" />
<path fill="#2d2d2d" opacity="0.89" d=" M 25.25 62.01 C 29.74 60.94 34.44 61.70 39.01 61.47 C 41.05 61.64 43.80 61.07 45.01 63.19 C 45.55 67.77 45.37 72.41 45.18 77.00 C 45.28 78.44 43.83 79.15 42.95 80.00 L 26.15 80.00 C 25.37 79.08 23.82 78.43 23.97 77.00 C 23.81 72.42 23.66 67.80 24.09 63.23 C 24.38 62.93 24.96 62.31 25.25 62.01 M 26.28 63.17 C 26.05 63.48 25.61 64.10 25.39 64.41 C 25.41 68.96 24.94 73.58 25.74 78.09 C 31.76 78.00 37.79 78.38 43.79 77.83 C 43.76 73.29 43.93 68.74 43.78 64.20 C 43.54 63.94 43.07 63.42 42.83 63.16 C 37.33 62.91 31.78 62.89 26.28 63.17 Z" />
<path fill="#2d2d2d" opacity="0.89" d=" M 47.26 63.52 C 48.39 60.89 51.69 61.65 53.97 61.46 C 58.27 61.68 62.67 61.00 66.90 61.94 C 69.65 63.66 68.45 67.30 68.75 69.98 C 68.49 73.41 69.77 77.74 66.36 80.00 L 49.59 80.00 C 48.70 79.29 47.82 78.58 46.96 77.85 C 47.21 73.08 46.57 68.25 47.26 63.52 M 49.00 63.12 C 48.60 68.07 48.70 73.06 48.95 78.02 C 54.93 78.12 60.93 78.24 66.91 77.94 C 66.97 73.31 67.11 68.68 66.91 64.06 C 66.65 63.82 66.14 63.35 65.89 63.12 C 60.27 62.88 54.63 63.00 49.00 63.12 Z" />
</g>
<g id="#2c2c2cdf">
<path fill="#2c2c2c" opacity="0.87" d=" M 46.95 43.15 C 49.83 39.42 54.99 41.52 59.00 40.99 C 62.12 41.35 66.61 39.68 68.43 43.16 C 69.08 47.06 68.55 51.07 68.73 55.01 C 69.15 57.23 67.34 59.63 64.99 59.39 C 60.00 59.45 55.00 59.54 50.01 59.34 C 48.59 59.44 47.55 58.15 47.08 56.97 C 46.80 52.37 47.13 47.75 46.95 43.15 M 48.94 42.92 C 48.77 47.89 48.51 52.89 49.11 57.84 C 55.07 57.51 61.21 58.65 67.04 57.22 C 66.93 52.49 67.04 47.75 66.93 43.01 C 60.95 42.54 54.93 42.66 48.94 42.92 Z" />
</g>
<g id="#1e1e1e96">
<path fill="#1e1e1e" opacity="0.59" d=" M 8.34 49.33 C 10.04 49.35 9.07 51.77 7.85 51.79 C 6.22 51.79 7.16 49.33 8.34 49.33 Z" />
</g>
<g id="#282828c7">
<path fill="#282828" opacity="0.78" d=" M 13.99 49.33 C 17.30 49.50 12.46 52.35 13.99 49.33 Z" />
</g>
<g id="#0f0f0f50">
<path fill="#0f0f0f" opacity="0.31" d=" M 30.20 49.63 C 31.00 48.07 34.33 48.60 35.72 49.49 C 34.11 50.73 31.97 50.14 30.20 49.63 Z" />
</g>
<g id="#1d1d1d95">
<path fill="#1d1d1d" opacity="0.58" d=" M 35.72 49.49 L 36.86 48.78 C 37.37 49.49 38.40 50.90 38.91 51.61 C 35.80 51.78 32.67 51.59 29.57 51.93 C 29.73 51.36 30.04 50.21 30.20 49.63 C 31.97 50.14 34.11 50.73 35.72 49.49 Z" />
</g>
<g id="#1d1d1d91">
<path fill="#1d1d1d" opacity="0.57" d=" M 52.82 49.32 C 55.65 49.39 58.47 49.27 61.29 49.05 C 61.22 49.63 61.09 50.79 61.02 51.37 C 61.46 51.44 62.34 51.58 62.78 51.64 C 62.53 51.85 62.02 52.27 61.77 52.48 C 60.80 51.83 59.81 51.20 58.82 50.57 L 58.72 50.50 C 58.69 50.55 58.64 50.64 58.61 50.69 C 57.95 52.84 55.18 51.83 53.55 52.27 C 53.31 51.29 53.06 50.30 52.82 49.32 Z" />
</g>
<g id="#2e2e2ee9">
<path fill="#2e2e2e" opacity="0.91" d=" M 11.28 50.45 C 11.56 50.73 11.56 50.73 11.28 50.45 Z" />
</g>
<g id="#313131f8">
<path fill="#313131" opacity="0.97" d=" M 58.61 50.69 C 58.64 50.64 58.69 50.55 58.72 50.50 L 58.82 50.57 L 58.61 50.69 Z" />
</g>
<g id="#2b2b2bd9">
<path fill="#2b2b2b" opacity="0.85" d=" M 29.61 70.30 C 32.68 70.70 35.78 70.60 38.85 70.33 C 38.45 71.16 38.06 72.00 37.66 72.84 C 37.30 72.46 36.59 71.71 36.23 71.34 C 34.52 73.34 31.80 72.26 29.56 72.26 C 29.57 71.77 29.60 70.79 29.61 70.30 Z" />
</g>
<g id="#18181879">
<path fill="#181818" opacity="0.47" d=" M 53.71 69.87 C 55.86 69.92 58.01 69.94 60.17 69.95 C 60.37 70.98 60.58 72.01 60.79 73.05 C 58.47 72.72 56.12 72.77 53.80 73.03 C 53.36 72.01 53.45 70.93 53.71 69.87 M 56.35 71.26 C 56.82 71.70 56.82 71.70 56.35 71.26 Z" />
</g>
<g id="#333333ff">
<path fill="#333333" opacity="1.00" d=" M 56.35 71.26 C 56.82 71.70 56.82 71.70 56.35 71.26 Z" />
</g>
</svg>
